<mxfile host="65bd71144e" pages="2">
    <diagram name="Seite-1" id="aa1ay96W5pGlLQEQ1QaZ">
        <mxGraphModel dx="1127" dy="783" grid="1" gridSize="10" guides="1" tooltips="1" connect="1" arrows="1" fold="1" page="0" pageScale="1" pageWidth="827" pageHeight="1169" background="none" math="0" shadow="0">
            <root>
                <mxCell id="0"/>
                <mxCell id="K4RG6xlcgAWGA_TNZQZL-3" value="Hintergrund" parent="0"/>
                <mxCell id="K4RG6xlcgAWGA_TNZQZL-7" value="" style="rounded=1;whiteSpace=wrap;html=1;fillColor=#ECDFCB;arcSize=8;labelBorderColor=none;strokeColor=#003056;dashed=1;strokeWidth=2;dashPattern=1 1;perimeterSpacing=0;glass=0;shadow=0;" parent="K4RG6xlcgAWGA_TNZQZL-3" vertex="1">
                    <mxGeometry x="80" y="170" width="1450" height="840" as="geometry"/>
                </mxCell>
                <mxCell id="K4RG6xlcgAWGA_TNZQZL-9" value="" style="shape=image;aspect=fixed;image=data:image/svg+xml,PD94bWwgdmVyc2lvbj0iMS4wIiBlbmNvZGluZz0iVVRGLTgiIHN0YW5kYWxvbmU9Im5vIj8+CjwhLS0gQ3JlYXRlZCB3aXRoIElua3NjYXBlIChodHRwOi8vd3d3Lmlua3NjYXBlLm9yZy8pIC0tPgoKPHN2ZwogICB3aWR0aD0iMTIwIgogICBoZWlnaHQ9IjQyIgogICBpZD0ic3ZnMjc1OSIKICAgc29kaXBvZGk6dmVyc2lvbj0iMC4zMiIKICAgaW5rc2NhcGU6dmVyc2lvbj0iMS40IChlN2MzZmViMTAwLCAyMDI0LTEwLTA5KSIKICAgdmVyc2lvbj0iMS4wIgogICBzb2RpcG9kaTpkb2NuYW1lPSJieS1zYS5zdmciCiAgIGlua3NjYXBlOm91dHB1dF9leHRlbnNpb249Im9yZy5pbmtzY2FwZS5vdXRwdXQuc3ZnLmlua3NjYXBlIgogICB4bWxuczppbmtzY2FwZT0iaHR0cDovL3d3dy5pbmtzY2FwZS5vcmcvbmFtZXNwYWNlcy9pbmtzY2FwZSIKICAgeG1sbnM6c29kaXBvZGk9Imh0dHA6Ly9zb2RpcG9kaS5zb3VyY2Vmb3JnZS5uZXQvRFREL3NvZGlwb2RpLTAuZHRkIgogICB4bWxucz0iaHR0cDovL3d3dy53My5vcmcvMjAwMC9zdmciCiAgIHhtbG5zOnN2Zz0iaHR0cDovL3d3dy53My5vcmcvMjAwMC9zdmciCiAgIHhtbG5zOnJkZj0iaHR0cDovL3d3dy53My5vcmcvMTk5OS8wMi8yMi1yZGYtc3ludGF4LW5zIyIKICAgeG1sbnM6Y2M9Imh0dHA6Ly9jcmVhdGl2ZWNvbW1vbnMub3JnL25zIyIKICAgeG1sbnM6ZGM9Imh0dHA6Ly9wdXJsLm9yZy9kYy9lbGVtZW50cy8xLjEvIj4KICA8ZGVmcwogICAgIGlkPSJkZWZzMjc2MSIgLz4KICA8c29kaXBvZGk6bmFtZWR2aWV3CiAgICAgaWQ9ImJhc2UiCiAgICAgcGFnZWNvbG9yPSIjZmZmZmZmIgogICAgIGJvcmRlcmNvbG9yPSIjOGI4YjhiIgogICAgIGJvcmRlcm9wYWNpdHk9IjEiCiAgICAgZ3JpZHRvbGVyYW5jZT0iMTAwMDAiCiAgICAgZ3VpZGV0b2xlcmFuY2U9IjEwIgogICAgIG9iamVjdHRvbGVyYW5jZT0iMTAiCiAgICAgaW5rc2NhcGU6cGFnZW9wYWNpdHk9IjAuMCIKICAgICBpbmtzY2FwZTpwYWdlc2hhZG93PSIyIgogICAgIGlua3NjYXBlOnpvb209IjUuOTM0ODk2NCIKICAgICBpbmtzY2FwZTpjeD0iODcuMDI3NjM2IgogICAgIGlua3NjYXBlOmN5PSIzNy40OTAxMjQiCiAgICAgaW5rc2NhcGU6ZG9jdW1lbnQtdW5pdHM9InB4IgogICAgIGlua3NjYXBlOmN1cnJlbnQtbGF5ZXI9ImxheWVyMSIKICAgICB3aWR0aD0iMTIwcHgiCiAgICAgaGVpZ2h0PSI0MnB4IgogICAgIGlua3NjYXBlOnNob3dwYWdlc2hhZG93PSJmYWxzZSIKICAgICBpbmtzY2FwZTp3aW5kb3ctd2lkdGg9IjE5MjAiCiAgICAgaW5rc2NhcGU6d2luZG93LWhlaWdodD0iMTAwOCIKICAgICBpbmtzY2FwZTp3aW5kb3cteD0iMCIKICAgICBpbmtzY2FwZTp3aW5kb3cteT0iMCIKICAgICBpbmtzY2FwZTpwYWdlY2hlY2tlcmJvYXJkPSIwIgogICAgIGlua3NjYXBlOmRlc2tjb2xvcj0iI2QxZDFkMSIKICAgICBpbmtzY2FwZTp3aW5kb3ctbWF4aW1pemVkPSIxIiAvPgogIDxtZXRhZGF0YQogICAgIGlkPSJtZXRhZGF0YTI3NjQiPgogICAgPHJkZjpSREY+CiAgICAgIDxjYzpXb3JrCiAgICAgICAgIHJkZjphYm91dD0iIj4KICAgICAgICA8ZGM6Zm9ybWF0PmltYWdlL3N2Zyt4bWw8L2RjOmZvcm1hdD4KICAgICAgICA8ZGM6dHlwZQogICAgICAgICAgIHJkZjpyZXNvdXJjZT0iaHR0cDovL3B1cmwub3JnL2RjL2RjbWl0eXBlL1N0aWxsSW1hZ2UiIC8+CiAgICAgIDwvY2M6V29yaz4KICAgIDwvcmRmOlJERj4KICA8L21ldGFkYXRhPgogIDxnCiAgICAgaW5rc2NhcGU6bGFiZWw9IkxheWVyIDEiCiAgICAgaW5rc2NhcGU6Z3JvdXBtb2RlPSJsYXllciIKICAgICBpZD0ibGF5ZXIxIj4KICAgIDxnCiAgICAgICB0cmFuc2Zvcm09Im1hdHJpeCgwLjk5Mzc4MDcsMCwwLDAuOTkzNjY5NCwtMTc3LjY5NDA5LC03NC40MzY0MDkpIgogICAgICAgaWQ9ImcyODciCiAgICAgICBpbmtzY2FwZTpleHBvcnQtZmlsZW5hbWU9Ii9tbnQvaGdmcy9Cb3YvRG9jdW1lbnRzL1dvcmsvMjAwNy9jYy9pZGVudGl0eS9zcnIgYnV0dG9ucy9iaWcvYnktc2EucG5nIgogICAgICAgaW5rc2NhcGU6ZXhwb3J0LXhkcGk9IjMwMC4yMzAxMyIKICAgICAgIGlua3NjYXBlOmV4cG9ydC15ZHBpPSIzMDAuMjMwMTMiPgogICAgICA8ZwogICAgICAgICBpZD0iZzU5MDhfMl8iCiAgICAgICAgIHRyYW5zZm9ybT0ibWF0cml4KDAuODcyOTIxLDAsMCwwLjg3MjkyMSw1MC4xMjUzNiwxNDMuMjE0NCkiPgogICAgICAgIDxwYXRoCiAgICAgICAgICAgaWQ9InBhdGg1OTA2XzJfIgogICAgICAgICAgIGN4PSIyOTYuMzU0MTYiCiAgICAgICAgICAgcnk9IjIyLjkzOTU0OCIKICAgICAgICAgICBjeT0iMjY0LjM1NzciCiAgICAgICAgICAgdHlwZT0iYXJjIgogICAgICAgICAgIHJ4PSIyMi45Mzk1NDgiCiAgICAgICAgICAgZD0iTSAxODcuMjA5NDQsLTU1LjY3OTIgQyAxODcuMjE1MDIsLTQ2Ljk5ODk2IDE4MC4xODE1OCwtMzkuOTU4MjUgMTcxLjUwMTM0LC0zOS45NTIxMiBDIDE2Mi44MjExMywtMzkuOTQ3MDggMTU1Ljc3OTI5LC00Ni45Nzk5OCAxNTUuNzc0MjYsLTU1LjY2MDE2IEMgMTU1Ljc3NDI2LC01NS42NjY4NyAxNTUuNzc0MjYsLTU1LjY3MjQ5IDE1NS43NzQyNiwtNTUuNjc5MiBDIDE1NS43NjkyMiwtNjQuMzYwNTQgMTYyLjgwMjA5LC03MS40MDEyNSAxNzEuNDgyMzMsLTcxLjQwNjMxIEMgMTgwLjE2MzY3LC03MS40MTE5MyAxODcuMjA0NDEsLTY0LjM3ODQyIDE4Ny4yMDk0NCwtNTUuNjk4MjQgQyAxODcuMjA5NDQsLTU1LjY5MjYzIDE4Ny4yMDk0NCwtNTUuNjg1OTEgMTg3LjIwOTQ0LC01NS42NzkyIHoiCiAgICAgICAgICAgc3R5bGU9ImZpbGw6I2ZmZmZmZiIgLz4KICAgICAgICA8ZwogICAgICAgICAgIGlkPSJnNTcwNl8yXyIKICAgICAgICAgICB0cmFuc2Zvcm09InRyYW5zbGF0ZSgtMjg5LjYxNTcsOTkuMDY1MykiPgogICAgICAgICAgPHBhdGgKICAgICAgICAgICAgIGlkPSJwYXRoNTcwOF8yXyIKICAgICAgICAgICAgIGQ9Ik0gNDczLjg4NDU1LC0xNjcuNTQ3MjQgQyA0NzcuMzY5OTYsLTE2NC4wNjEyOCA0NzkuMTEyOTQsLTE1OS43OTMzMyA0NzkuMTEyOTQsLTE1NC43NDQ1MSBDIDQ3OS4xMTI5NCwtMTQ5LjY5NTEzIDQ3Ny40MDAxNCwtMTQ1LjQ3MzAzIDQ3My45NzQ2LC0xNDIuMDc3MTUgQyA0NzAuMzM5MjksLTEzOC41MDA1NSA0NjYuMDQyODEsLTEzNi43MTI4MyA0NjEuMDg1MTMsLTEzNi43MTI4MyBDIDQ1Ni4xODczNiwtMTM2LjcxMjgzIDQ1MS45NjUyNiwtMTM4LjQ4NTQ0IDQ0OC40MjAwMywtMTQyLjAzMjM4IEMgNDQ0Ljg3NDE5LC0xNDUuNTc4MTkgNDQzLjEwMTU4LC0xNDkuODE1MzcgNDQzLjEwMTU4LC0xNTQuNzQ0NTEgQyA0NDMuMTAxNTgsLTE1OS42NzMxIDQ0NC44NzQxOSwtMTYzLjk0MDQ5IDQ0OC40MjAwMywtMTY3LjU0NzI0IEMgNDUxLjg3NTIzLC0xNzEuMDMzNzUgNDU2LjA5NzI4LC0xNzIuNzc2MTggNDYxLjA4NTEzLC0xNzIuNzc2MTggQyA0NjYuMTMzNDIsLTE3Mi43NzYxOCA0NzAuMzk5MTQsLTE3MS4wMzM3NSA0NzMuODg0NTUsLTE2Ny41NDcyNCB6IE0gNDUwLjc2NjU3LC0xNjUuMjAyMzkgQyA0NDcuODE5ODIsLTE2Mi4yMjYwMSA0NDYuMzQ3MDEsLTE1OC43Mzk1IDQ0Ni4zNDcwMSwtMTU0Ljc0MDA1IEMgNDQ2LjM0NzAxLC0xNTAuNzQxNyA0NDcuODA1MjksLTE0Ny4yODQ4NSA0NTAuNzIxMjUsLTE0NC4zNjkzOCBDIDQ1My42Mzc3OCwtMTQxLjQ1Mjg4IDQ1Ny4xMDk3NCwtMTM5Ljk5NDYyIDQ2MS4xMzgzLC0xMzkuOTk0NjIgQyA0NjUuMTY2ODMsLTEzOS45OTQ2MiA0NjguNjY4NDgsLTE0MS40Njc0MyA0NzEuNjQ0ODYsLTE0NC40MTM2MyBDIDQ3NC40NzA3NiwtMTQ3LjE0OTQ3IDQ3NS44ODQyNywtMTUwLjU5MDY5IDQ3NS44ODQyNywtMTU0Ljc0MDA1IEMgNDc1Ljg4NDI3LC0xNTguODU4MDkgNDc0LjQ0NzgxLC0xNjIuMzUyOTcgNDcxLjU3NjU5LC0xNjUuMjI0NzkgQyA0NjguNzA1OTUsLTE2OC4wOTU0NiA0NjUuMjI2NzEsLTE2OS41MzEzMSA0NjEuMTM4MywtMTY5LjUzMTMxIEMgNDU3LjA0OTkzLC0xNjkuNTMxMzEgNDUzLjU5MTkyLC0xNjguMDg4MTMgNDUwLjc2NjU3LC0xNjUuMjAyMzkgeiBNIDQ1OC41MjEwNiwtMTU2LjQ5OTI3IEMgNDU4LjA3MDc0LC0xNTcuNDgwOSA0NTcuMzk2NzMsLTE1Ny45NzE1IDQ1Ni40OTc4MSwtMTU3Ljk3MTUgQyA0NTQuOTA4NjcsLTE1Ny45NzE1IDQ1NC4xMTQzOSwtMTU2LjkwMTk4IDQ1NC4xMTQzOSwtMTU0Ljc2MyBDIDQ1NC4xMTQzOSwtMTUyLjYyMzQxIDQ1NC45MDg2NywtMTUxLjU1Mzg5IDQ1Ni40OTc4MSwtMTUxLjU1Mzg5IEMgNDU3LjU0NzE5LC0xNTEuNTUzODkgNDU4LjI5Njc2LC0xNTIuMDc1MTkgNDU4Ljc0NjQ3LC0xNTMuMTE5MDEgTCA0NjAuOTQ5MjMsLTE1MS45NDU5OCBDIDQ1OS44OTkzLC0xNTAuMDgwNSA0NTguMzI0MTcsLTE0OS4xNDY5NyA0NTYuMjIzNzQsLTE0OS4xNDY5NyBDIDQ1NC42MDM4NCwtMTQ5LjE0Njk3IDQ1My4zMDYxMSwtMTQ5LjY0MzY3IDQ1Mi4zMzE2OCwtMTUwLjYzNjUzIEMgNDUxLjM1NTYxLC0xNTEuNjI5OTQgNDUwLjg2ODk0LC0xNTIuOTk5MjYgNDUwLjg2ODk0LC0xNTQuNzQ0NSBDIDQ1MC44Njg5NCwtMTU2LjQ2MDA4IDQ1MS4zNzEyMywtMTU3LjgyMTU5IDQ1Mi4zNzY0MiwtMTU4LjgzMDEzIEMgNDUzLjM4MTYxLC0xNTkuODM4MDYgNDU0LjYzMzQ3LC0xNjAuMzQyNjQgNDU2LjEzNDIzLC0xNjAuMzQyNjQgQyA0NTguMzU0MzUsLTE2MC4zNDI2NCA0NTkuOTQ0MDcsLTE1OS40Njc3NiA0NjAuOTA1MDQsLTE1Ny43MTk3OCBMIDQ1OC41MjEwNiwtMTU2LjQ5OTI3IHogTSA0NjguODg0NCwtMTU2LjQ5OTI3IEMgNDY4LjQzMzUzLC0xNTcuNDgwOSA0NjcuNzcyOTIsLTE1Ny45NzE1IDQ2Ni45MDIwMSwtMTU3Ljk3MTUgQyA0NjUuMjgwOTUsLTE1Ny45NzE1IDQ2NC40Njk4OCwtMTU2LjkwMTk4IDQ2NC40Njk4OCwtMTU0Ljc2MyBDIDQ2NC40Njk4OCwtMTUyLjYyMzQxIDQ2NS4yODA5NSwtMTUxLjU1Mzg5IDQ2Ni45MDIwMSwtMTUxLjU1Mzg5IEMgNDY3Ljk1MzA0LC0xNTEuNTUzODkgNDY4LjY4OTE4LC0xNTIuMDc1MTkgNDY5LjEwOTI1LC0xNTMuMTE5MDEgTCA0NzEuMzYxMjYsLTE1MS45NDU5OCBDIDQ3MC4zMTMwMSwtMTUwLjA4MDUgNDY4Ljc0MDA3LC0xNDkuMTQ2OTcgNDY2LjY0MzU4LC0xNDkuMTQ2OTcgQyA0NjUuMDI1ODcsLTE0OS4xNDY5NyA0NjMuNzMwOTUsLTE0OS42NDM2NyA0NjIuNzU3MTEsLTE1MC42MzY1MyBDIDQ2MS43ODQ5NCwtMTUxLjYyOTk0IDQ2MS4yOTc3MywtMTUyLjk5OTI2IDQ2MS4yOTc3MywtMTU0Ljc0NDUgQyA0NjEuMjk3NzMsLTE1Ni40NjAwOCA0NjEuNzkyMjEsLTE1Ny44MjE1OSA0NjIuNzgwNjEsLTE1OC44MzAxMyBDIDQ2My43Njg0MywtMTU5LjgzODA2IDQ2NS4wMjU4OCwtMTYwLjM0MjY0IDQ2Ni41NTQwOCwtMTYwLjM0MjY0IEMgNDY4Ljc3MDI3LC0xNjAuMzQyNjQgNDcwLjM1Nzc2LC0xNTkuNDY3NzYgNDcxLjMxNTQsLTE1Ny43MTk3OCBMIDQ2OC44ODQ0LC0xNTYuNDk5MjcgeiIgLz4KICAgICAgICA8L2c+CiAgICAgIDwvZz4KICAgICAgPHBhdGgKICAgICAgICAgZD0iTSAyOTcuMjk2MzksNzQuOTEwNjQgTCAxODEuMDY2ODgsNzQuOTEwNjQgQyAxNzkuODIwMyw3NC45MTA2NCAxNzguODA2MTQsNzUuOTI1MjkgMTc4LjgwNjE0LDc3LjE3MTg3IEwgMTc4LjgwNjE0LDExNi42Njc0OCBDIDE3OC44MDYxNCwxMTYuOTQ5MjIgMTc5LjAzNDY2LDExNy4xNzgyMiAxNzkuMzE2MzksMTE3LjE3ODIyIEwgMjk5LjA0NjM5LDExNy4xNzgyMiBDIDI5OS4zMjgxMywxMTcuMTc4MjIgMjk5LjU1NzEzLDExNi45NDkyMiAyOTkuNTU3MTMsMTE2LjY2NzQ4IEwgMjk5LjU1NzEzLDc3LjE3MTg4IEMgMjk5LjU1NzEzLDc1LjkyNTI5IDI5OC41NDI5Nyw3NC45MTA2NCAyOTcuMjk2MzksNzQuOTEwNjQgeiBNIDE4MS4wNjY4OCw3NS45MzIxMyBMIDI5Ny4yOTYzOSw3NS45MzIxMyBDIDI5Ny45Nzk5OCw3NS45MzIxMyAyOTguNTM1NjUsNzYuNDg4MjggMjk4LjUzNTY1LDc3LjE3MTg4IEMgMjk4LjUzNTY1LDc3LjE3MTg4IDI5OC41MzU2NSw5My4wOTEzMSAyOTguNTM1NjUsMTA0LjU5MDM0IEwgMjE1LjQ2MTksMTA0LjU5MDM0IEMgMjEyLjQxNjk4LDExMC4wOTU3MSAyMDYuNTUwNzcsMTEzLjgzMzk5IDE5OS44MTgzNSwxMTMuODMzOTkgQyAxOTMuMDgzLDExMy44MzM5OSAxODcuMjE4MjUsMTEwLjA5OTEzIDE4NC4xNzQ4LDEwNC41OTAzNCBMIDE3OS44MjY2NiwxMDQuNTkwMzQgQyAxNzkuODI2NjYsOTMuMDkxMzIgMTc5LjgyNjY2LDc3LjE3MTg4IDE3OS44MjY2Niw3Ny4xNzE4OCBDIDE3OS44MjY2NCw3Ni40ODgyOCAxODAuMzgzMjksNzUuOTMyMTMgMTgxLjA2Njg4LDc1LjkzMjEzIHoiCiAgICAgICAgIGlkPSJwYXRoMjk0IiAvPgogICAgICA8ZwogICAgICAgICBlbmFibGUtYmFja2dyb3VuZD0ibmV3ICAgICIKICAgICAgICAgaWQ9ImcyOTYiPgogICAgICAgIDxwYXRoCiAgICAgICAgICAgZD0iTSAyNjUuNjA5ODYsMTEyLjg4MzMgQyAyNjUuNjg5OTQsMTEzLjAzOTA2IDI2NS43OTczNiwxMTMuMTY1MDQgMjY1LjkzMTE1LDExMy4yNjE3MiBDIDI2Ni4wNjQ5NCwxMTMuMzU3OTEgMjY2LjIyMTE5LDExMy40Mjk2OSAyNjYuNDAwODgsMTEzLjQ3NjA4IEMgMjY2LjU4MTU0LDExMy41MjI5NiAyNjYuNzY4MDcsMTEzLjU0NjM5IDI2Ni45NjA0NSwxMTMuNTQ2MzkgQyAyNjcuMDkwMzMsMTEzLjU0NjM5IDI2Ny4yMjk5OCwxMTMuNTM1NjUgMjY3LjM3OTQsMTEzLjUxMzY4IEMgMjY3LjUyNzg0LDExMy40OTIyIDI2Ny42Njc0OSwxMTMuNDQ5NzIgMjY3Ljc5ODM1LDExMy4zODc3IEMgMjY3LjkyODIzLDExMy4zMjU2OSAyNjguMDM3NjEsMTEzLjIzOTc1IDI2OC4xMjM1NSwxMTMuMTMwODYgQyAyNjguMjExNDQsMTEzLjAyMTk3IDI2OC4yNTQ0MSwxMTIuODgzNzkgMjY4LjI1NDQxLDExMi43MTUzMyBDIDI2OC4yNTQ0MSwxMTIuNTM1MTUgMjY4LjE5Njc5LDExMi4zODkxNiAyNjguMDgxNTYsMTEyLjI3Njg1IEMgMjY3Ljk2NzMsMTEyLjE2NDU1IDI2Ny44MTU5NCwxMTIuMDcxNzcgMjY3LjYyOTQxLDExMS45OTY1OCBDIDI2Ny40NDM4NiwxMTEuOTIyMzYgMjY3LjIzMTk1LDExMS44NTY5MyAyNjYuOTk2NiwxMTEuODAwNzggQyAyNjYuNzYwMjcsMTExLjc0NDYzIDI2Ni41MjEwMSwxMTEuNjgyNjIgMjY2LjI3ODgzLDExMS42MTM3NyBDIDI2Ni4wMjk4MSwxMTEuNTUxNzYgMjY1Ljc4NzYyLDExMS40NzU1OSAyNjUuNTUxMjksMTExLjM4NTI1IEMgMjY1LjMxNTk0LDExMS4yOTU0MSAyNjUuMTA0MDIsMTExLjE3ODIyIDI2NC45MTc1LDExMS4wMzUxNSBDIDI2NC43MzA5OCwxMTAuODkyMDggMjY0LjU4MDU5LDExMC43MTMzNyAyNjQuNDY1MzUsMTEwLjQ5ODUzIEMgMjY0LjM1MTA5LDExMC4yODM2OSAyNjQuMjkzNDcsMTEwLjAyMzkyIDI2NC4yOTM0NywxMDkuNzE5MjMgQyAyNjQuMjkzNDcsMTA5LjM3NjQ2IDI2NC4zNjY3MSwxMDkuMDc5NTggMjY0LjUxMjIyLDEwOC44Mjc2MyBDIDI2NC42NTg3LDEwOC41NzU2OCAyNjQuODUwMTEsMTA4LjM2NTcyIDI2NS4wODY0NCwxMDguMTk3MjYgQyAyNjUuMzIxNzksMTA4LjAyOTI5IDI2NS41ODkzNywxMDcuOTA0NzggMjY1Ljg4ODIsMTA3LjgyMzcyIEMgMjY2LjE4NjA1LDEwNy43NDMxNSAyNjYuNDg0ODgsMTA3LjcwMjYzIDI2Ni43ODI3MywxMDcuNzAyNjMgQyAyNjcuMTMxMzYsMTA3LjcwMjYzIDI2Ny40NjUzNSwxMDcuNzQxNjkgMjY3Ljc4NTY2LDEwNy44MTk4MiBDIDI2OC4xMDUsMTA3Ljg5NzQ2IDI2OC4zOTAxNSwxMDguMDIzOTIgMjY4LjYzODIsMTA4LjE5ODI0IEMgMjY4Ljg4NzIyLDEwOC4zNzI1NiAyNjkuMDg0NDksMTA4LjU5NTIxIDI2OS4yMzA5NywxMDguODY2MjEgQyAyNjkuMzc2NDgsMTA5LjEzNzIxIDI2OS40NDk3MiwxMDkuNDY1ODIgMjY5LjQ0OTcyLDEwOS44NTE1NiBMIDI2OC4wMjc4NCwxMDkuODUxNTYgQyAyNjguMDE1MTQsMTA5LjY1MjM0IDI2Ny45NzMxNSwxMDkuNDg3MyAyNjcuOTAyODQsMTA5LjM1NjkzIEMgMjY3LjgzMTU1LDEwOS4yMjYwNyAyNjcuNzM2ODIsMTA5LjEyMzUzIDI2Ny42MTk2NCwxMDkuMDQ4MzQgQyAyNjcuNTAxNDgsMTA4Ljk3NDEyIDI2Ny4zNjY3MSwxMDguOTIwOSAyNjcuMjE1MzQsMTA4Ljg5MDE0IEMgMjY3LjA2MywxMDguODU4ODkgMjY2Ljg5Nzk2LDEwOC44NDMyNiAyNjYuNzE4MjcsMTA4Ljg0MzI2IEMgMjY2LjYwMTA4LDEwOC44NDMyNiAyNjYuNDgyOTIsMTA4Ljg1NTk2IDI2Ni4zNjU3MywxMDguODgwMzcgQyAyNjYuMjQ3NTcsMTA4LjkwNTc2IDI2Ni4xNDExMiwxMDguOTQ5MjIgMjY2LjA0NTQyLDEwOS4wMTEyMyBDIDI2NS45NDg3NCwxMDkuMDczNzMgMjY1Ljg2OTY0LDEwOS4xNTEzNyAyNjUuODA4MTIsMTA5LjI0NDYzIEMgMjY1Ljc0NjYsMTA5LjMzODM4IDI2NS43MTUzNSwxMDkuNDU2NTQgMjY1LjcxNTM1LDEwOS41OTk2MSBDIDI2NS43MTUzNSwxMDkuNzMwNDcgMjY1LjczOTc2LDEwOS44MzY0MyAyNjUuNzg5NTcsMTA5LjkxNjk5IEMgMjY1LjgzOTM3LDEwOS45OTgwNCAyNjUuOTM4MDEsMTEwLjA3Mjc1IDI2Ni4wODM1MiwxMTAuMTQxMTEgQyAyNjYuMjI5MDMsMTEwLjIwOTQ3IDI2Ni40MzExOCwxMTAuMjc4MzIgMjY2LjY4ODk5LDExMC4zNDY2OCBDIDI2Ni45NDY4LDExMC40MTUwNCAyNjcuMjgzNzIsMTEwLjUwMjQ0IDI2Ny43MDA3MSwxMTAuNjA3OTEgQyAyNjcuODI0NzMsMTEwLjYzMjgxIDI2Ny45OTY2MSwxMTAuNjc4MjIgMjY4LjIxNzMxLDExMC43NDM2NSBDIDI2OC40MzgwMSwxMTAuODA5MDggMjY4LjY1Njc2LDExMC45MTMwOCAyNjguODc0NTQsMTExLjA1NjE1IEMgMjY5LjA5MjMxLDExMS4xOTk3IDI2OS4yNzk4MSwxMTEuMzkxMTEgMjY5LjQzODk5LDExMS42MzAzNyBDIDI2OS41OTcxOSwxMTEuODcwMTIgMjY5LjY3NjI5LDExMi4xNzY3NiAyNjkuNjc2MjksMTEyLjU1MDI5IEMgMjY5LjY3NjI5LDExMi44NTU0NyAyNjkuNjE2NzIsMTEzLjEzODY3IDI2OS40OTg1NiwxMTMuMzk5OSBDIDI2OS4zODA0LDExMy42NjE2MiAyNjkuMjA0NjEsMTEzLjg4NzIgMjY4Ljk3MTIyLDExNC4wNzY2NiBDIDI2OC43Mzc4MiwxMTQuMjY3MDkgMjY4LjQ0ODc2LDExNC40MTQ1NSAyNjguMTA0MDMsMTE0LjUyMDUxIEMgMjY3Ljc1ODMzLDExNC42MjY0NyAyNjcuMzU3OTQsMTE0LjY3OTIgMjY2LjkwNDgxLDExNC42NzkyIEMgMjY2LjUzNzYyLDExNC42NzkyIDI2Ni4xODExOCwxMTQuNjMzNzkgMjY1LjgzNTQ3LDExNC41NDM0NiBDIDI2NS40OTA3NCwxMTQuNDUzMTMgMjY1LjE4NTA4LDExNC4zMTEwNCAyNjQuOTIwNDMsMTE0LjExNzY4IEMgMjY0LjY1Njc2LDExMy45MjQzMiAyNjQuNDQ2OCwxMTMuNjc3NzQgMjY0LjI5MDU1LDExMy4zNzg5MSBDIDI2NC4xMzUyOCwxMTMuMDc5NTkgMjY0LjA2MTA2LDExMi43MjUxIDI2NC4wNjY5MiwxMTIuMzEzOTcgTCAyNjUuNDg4OCwxMTIuMzEzOTcgQyAyNjUuNDg4NzcsMTEyLjUzODA5IDI2NS41Mjg4MSwxMTIuNzI4MDMgMjY1LjYwOTg2LDExMi44ODMzIHoiCiAgICAgICAgICAgaWQ9InBhdGgyOTgiCiAgICAgICAgICAgc3R5bGU9ImZpbGw6I2ZmZmZmZiIgLz4KICAgICAgICA8cGF0aAogICAgICAgICAgIGQ9Ik0gMjczLjg2NjcsMTA3Ljg2NjcgTCAyNzYuMzU5ODYsMTE0LjUzMDc2IEwgMjc0LjgzNzQsMTE0LjUzMDc2IEwgMjc0LjMzMzQ5LDExMy4wNDYzOCBMIDI3MS44NDAzMywxMTMuMDQ2MzggTCAyNzEuMzE3ODcsMTE0LjUzMDc2IEwgMjY5Ljg0MzI2LDExNC41MzA3NiBMIDI3Mi4zNjM3NywxMDcuODY2NyBMIDI3My44NjY3LDEwNy44NjY3IHogTSAyNzMuOTUwNjgsMTExLjk1MjY0IEwgMjczLjExMDg0LDEwOS41MDkyOCBMIDI3My4wOTIyOSwxMDkuNTA5MjggTCAyNzIuMjIzMTUsMTExLjk1MjY0IEwgMjczLjk1MDY4LDExMS45NTI2NCB6IgogICAgICAgICAgIGlkPSJwYXRoMzAwIgogICAgICAgICAgIHN0eWxlPSJmaWxsOiNmZmZmZmYiIC8+CiAgICAgIDwvZz4KICAgICAgPGcKICAgICAgICAgZW5hYmxlLWJhY2tncm91bmQ9Im5ldyAgICAiCiAgICAgICAgIGlkPSJnMzAyIj4KICAgICAgICA8cGF0aAogICAgICAgICAgIGQ9Ik0gMjM5LjE3ODIxLDEwNy44NjY3IEMgMjM5LjQ5NTU5LDEwNy44NjY3IDIzOS43ODU2MywxMDcuODk1MDIgMjQwLjA0NzM1LDEwNy45NTA2OCBDIDI0MC4zMDkwNywxMDguMDA2ODMgMjQwLjUzMzY4LDEwOC4wOTg2MyAyNDAuNzIxMTgsMTA4LjIyNjA3IEMgMjQwLjkwNzcsMTA4LjM1MzUxIDI0MS4wNTMyMSwxMDguNTIyOTUgMjQxLjE1NTc1LDEwOC43MzQzNyBDIDI0MS4yNTgyOSwxMDguOTQ1NzkgMjQxLjMxMDA1LDEwOS4yMDcwMyAyNDEuMzEwMDUsMTA5LjUxODA2IEMgMjQxLjMxMDA1LDEwOS44NTQgMjQxLjIzMzg4LDExMC4xMzMyOSAyNDEuMDgwNTYsMTEwLjM1NzQyIEMgMjQwLjkyODIyLDExMC41ODE1NCAyNDAuNzAxNjUsMTEwLjc2NDY1IDI0MC40MDI4MywxMTAuOTA3NzEgQyAyNDAuODE0OTQsMTExLjAyNTg3IDI0MS4xMjI1NiwxMTEuMjMyOTEgMjQxLjMyNTY4LDExMS41Mjg4IEMgMjQxLjUyODgsMTExLjgyNDY5IDI0MS42MzAzNywxMTIuMTgxMTQgMjQxLjYzMDM3LDExMi41OTgxNCBDIDI0MS42MzAzNywxMTIuOTM0MDggMjQxLjU2NDk0LDExMy4yMjUwOSAyNDEuNDM0MDgsMTEzLjQ3MTE5IEMgMjQxLjMwMzIyLDExMy43MTY4IDI0MS4xMjY0NiwxMTMuOTE3NDggMjQwLjkwNTc2LDExNC4wNzMyNCBDIDI0MC42ODQwOCwxMTQuMjI5IDI0MC40MzExNSwxMTQuMzQ0MjQgMjQwLjE0Nzk1LDExNC40MTg0NSBDIDIzOS44NjM3NywxMTQuNDkzNjUgMjM5LjU3Mjc1LDExNC41MzA3NSAyMzkuMjcyOTUsMTE0LjUzMDc1IEwgMjM2LjAzNjYyLDExNC41MzA3NSBMIDIzNi4wMzY2MiwxMDcuODY2NjkgTCAyMzkuMTc4MjEsMTA3Ljg2NjY5IEwgMjM5LjE3ODIxLDEwNy44NjY3IHogTSAyMzguOTkwNzEsMTEwLjU2MjAxIEMgMjM5LjI1MjQzLDExMC41NjIwMSAyMzkuNDY3MjcsMTEwLjUgMjM5LjYzNjIyLDExMC4zNzU5NyBDIDIzOS44MDQxOSwxMTAuMjUxNDYgMjM5Ljg4ODE3LDExMC4wNTAyOSAyMzkuODg4MTcsMTA5Ljc3MDk5IEMgMjM5Ljg4ODE3LDEwOS42MTU3MiAyMzkuODU5ODUsMTA5LjQ4ODI4IDIzOS44MDQxOSwxMDkuMzg5MTUgQyAyMzkuNzQ3NTUsMTA5LjI4OTU0IDIzOS42NzMzMywxMDkuMjEyMzkgMjM5LjU3OTU4LDEwOS4xNTYyNCBDIDIzOS40ODU4MywxMDkuMTAwNTggMjM5LjM3ODQxLDEwOS4wNjE1MSAyMzkuMjU3MzEsMTA5LjA0MDAzIEMgMjM5LjEzNTI0LDEwOS4wMTgwNiAyMzkuMDA5MjYsMTA5LjAwNzMyIDIzOC44Nzg0LDEwOS4wMDczMiBMIDIzNy41MDUzNSwxMDkuMDA3MzIgTCAyMzcuNTA1MzUsMTEwLjU2MjAxIEwgMjM4Ljk5MDcxLDExMC41NjIwMSB6IE0gMjM5LjA3NjY0LDExMy4zOTAxNCBDIDIzOS4yMjAxOSwxMTMuMzkwMTQgMjM5LjM1NjkxLDExMy4zNzY0NyAyMzkuNDg3NzcsMTEzLjM0ODE1IEMgMjM5LjYxODYzLDExMy4zMjAzMiAyMzkuNzM0ODQsMTEzLjI3MzQ0IDIzOS44MzQ0NSwxMTMuMjA4NSBDIDIzOS45MzQwNiwxMTMuMTQzMDcgMjQwLjAxMzE2LDExMy4wNTQyIDI0MC4wNzI3MywxMTIuOTQyMzkgQyAyNDAuMTMyMywxMTIuODMwNTggMjQwLjE2MTYsMTEyLjY4NzUxIDI0MC4xNjE2LDExMi41MTMxOSBDIDI0MC4xNjE2LDExMi4xNzEzOSAyNDAuMDY0OTIsMTExLjkyNzI1IDIzOS44NzE1NiwxMTEuNzgxMjYgQyAyMzkuNjc4MiwxMTEuNjM1MjcgMjM5LjQyMjM0LDExMS41NjIwMiAyMzkuMTA0OTYsMTExLjU2MjAyIEwgMjM3LjUwNTM1LDExMS41NjIwMiBMIDIzNy41MDUzNSwxMTMuMzkwMTQgTCAyMzkuMDc2NjQsMTEzLjM5MDE0IHoiCiAgICAgICAgICAgaWQ9InBhdGgzMDQiCiAgICAgICAgICAgc3R5bGU9ImZpbGw6I2ZmZmZmZiIgLz4KICAgICAgICA8cGF0aAogICAgICAgICAgIGQ9Ik0gMjQxLjg4OTE0LDEwNy44NjY3IEwgMjQzLjUzMjY5LDEwNy44NjY3IEwgMjQ1LjA5MzI0LDExMC40OTg1NCBMIDI0Ni42NDQwMiwxMDcuODY2NyBMIDI0OC4yNzc4MSwxMDcuODY2NyBMIDI0NS44MDQxOCwxMTEuOTczMTUgTCAyNDUuODA0MTgsMTE0LjUzMDc3IEwgMjQ0LjMzNTQzLDExNC41MzA3NyBMIDI0NC4zMzU0MywxMTEuOTM2MDQgTCAyNDEuODg5MTQsMTA3Ljg2NjcgeiIKICAgICAgICAgICBpZD0icGF0aDMwNiIKICAgICAgICAgICBzdHlsZT0iZmlsbDojZmZmZmZmIiAvPgogICAgICA8L2c+CiAgICAgIDxnCiAgICAgICAgIGlkPSJnNjMxNl8xXyIKICAgICAgICAgdHJhbnNmb3JtPSJtYXRyaXgoMC42MjQ5OTUsMCwwLDAuNjI0OTk1LDM5MS4yMjk0LDE3Ni45MzMyKSI+CiAgICAgICAgPHBhdGgKICAgICAgICAgICBpZD0icGF0aDYzMThfMV8iCiAgICAgICAgICAgY3g9IjQ3NS45NzExOSIKICAgICAgICAgICByeT0iMjkuMjA5ODc3IgogICAgICAgICAgIGN5PSIyNTIuMDg2NDYiCiAgICAgICAgICAgdHlwZT0iYXJjIgogICAgICAgICAgIHJ4PSIyOS4yMDk4NzciCiAgICAgICAgICAgZD0iTSAtMTc1LjAwODMsLTEzOS4xMTUzIEMgLTE3NS4wMDIwNCwtMTI5LjcwMzUgLTE4Mi42MjU1NSwtMTIyLjA2NzUxIC0xOTIuMDM4MTIsLTEyMi4wNjA0OSBDIC0yMDEuNDQ5MTMsLTEyMi4wNTM0MSAtMjA5LjA4NTEyLC0xMjkuNjc3NzQgLTIwOS4wOTI5MywtMTM5LjA5MDI4IEMgLTIwOS4wOTI5MywtMTM5LjA5ODA5IC0yMDkuMDkyOTMsLTEzOS4xMDc0OSAtMjA5LjA5MjkzLC0xMzkuMTE1MyBDIC0yMDkuMDk5MTksLTE0OC41Mjc4NCAtMjAxLjQ3NDEzLC0xNTYuMTYyMyAtMTkyLjA2MzExLC0xNTYuMTcwMTEgQyAtMTgyLjY1MDU0LC0xNTYuMTc3MTMgLTE3NS4wMTQ1NiwtMTQ4LjU1MjA3IC0xNzUuMDA4MywtMTM5LjE0MDI2IEMgLTE3NS4wMDgzLC0xMzkuMTMwOTIgLTE3NS4wMDgzLC0xMzkuMTIzOSAtMTc1LjAwODMsLTEzOS4xMTUzIHoiCiAgICAgICAgICAgc3R5bGU9ImZpbGw6I2ZmZmZmZiIgLz4KICAgICAgICA8ZwogICAgICAgICAgIGlkPSJnNjMyMF8xXyIKICAgICAgICAgICB0cmFuc2Zvcm09InRyYW5zbGF0ZSgtMjMuOTUyMSwtODkuNzI5NjIpIj4KICAgICAgICAgIDxwYXRoCiAgICAgICAgICAgICBpZD0icGF0aDYzMjJfMV8iCiAgICAgICAgICAgICBkPSJNIC0xNjguMjIwNCwtNjguMDU1MzYgQyAtMTczLjM5MjM0LC02OC4wNTUzNiAtMTc3Ljc2ODkyLC02Ni4yNTA2NyAtMTgxLjM1MTc1LC02Mi42NDIwMyBDIC0xODUuMDI4MzYsLTU4LjkwNzU5IC0xODYuODY1ODgsLTU0LjQ4ODgzIC0xODYuODY1ODgsLTQ5LjM4NTY4IEMgLTE4Ni44NjU4OCwtNDQuMjgyNTMgLTE4NS4wMjgzNiwtMzkuODk0MTYgLTE4MS4zNTE3NSwtMzYuMjIzMDggQyAtMTc3LjY3NjczLC0zMi41NTExNCAtMTczLjI5ODU5LC0zMC43MTUyMSAtMTY4LjIyMDQsLTMwLjcxNTIxIEMgLTE2My4wNzk3NCwtMzAuNzE1MjEgLTE1OC42MjUwMywtMzIuNTY2NzcgLTE1NC44NTMxMiwtMzYuMjY5OTYgQyAtMTUxLjMwMzA3LC0zOS43ODU1OCAtMTQ5LjUyNjUyLC00NC4xNTgyNyAtMTQ5LjUyNjUyLC00OS4zODU2OCBDIC0xNDkuNTI2NTIsLTU0LjYxMjMgLTE1MS4zMzQzMiwtNTkuMDMyNjUgLTE1NC45NDg0MywtNjIuNjQyMDMgQyAtMTU4LjU2MjUsLTY2LjI1MDY3IC0xNjIuOTg1OTksLTY4LjA1NTM2IC0xNjguMjIwNCwtNjguMDU1MzYgeiBNIC0xNjguMTczNTIsLTY0LjY5NTE5IEMgLTE2My45MzYsLTY0LjY5NTE5IC0xNjAuMzM3NTIsLTYzLjIwMjIxIC0xNTcuMzc2NTUsLTYwLjIxNDY2IEMgLTE1NC4zODc0OCwtNTcuMjU4MzYgLTE1Mi44OTIxNCwtNTMuNjQ4OTkgLTE1Mi44OTIxNCwtNDkuMzg1NjggQyAtMTUyLjg5MjE0LC00NS4wOTE4NiAtMTU0LjM1NDY2LC00MS41Mjg1NiAtMTU3LjI4NDM4LC0zOC42OTY1MyBDIC0xNjAuMzY4NzYsLTM1LjY0NzI3IC0xNjMuOTk4NDksLTM0LjEyMzA0IC0xNjguMTczNTEsLTM0LjEyMzA0IEMgLTE3Mi4zNDg1NiwtMzQuMTIzMDQgLTE3NS45NDcwMSwtMzUuNjMyNDQgLTE3OC45Njg5MiwtMzguNjQ5NjUgQyAtMTgxLjk5MDgsLTQxLjY2OTE4IC0xODMuNTAxNzYsLTQ1LjI0NjU3IC0xODMuNTAxNzYsLTQ5LjM4NTY3IEMgLTE4My41MDE3NiwtNTMuNTIzOTggLTE4MS45NzUxOCwtNTcuMTM0MTQgLTE3OC45MjIwNSwtNjAuMjE0NjUgQyAtMTc1Ljk5MzksLTYzLjIwMjIxIC0xNzIuNDExMDcsLTY0LjY5NTE5IC0xNjguMTczNTIsLTY0LjY5NTE5IHoiIC8+CiAgICAgICAgICA8cGF0aAogICAgICAgICAgICAgaWQ9InBhdGg2MzI0XzFfIgogICAgICAgICAgICAgZD0iTSAtMTc2LjQ5NTQ4LC01Mi4wMjA4NyBDIC0xNzUuNzUxNzEsLTU2LjcxODU2IC0xNzIuNDQzODcsLTU5LjIyOTQ5IC0xNjguMzAwMDgsLTU5LjIyOTQ5IEMgLTE2Mi4zMzkxMSwtNTkuMjI5NDkgLTE1OC43MDc4MywtNTQuOTA0NDggLTE1OC43MDc4MywtNDkuMTM3MiBDIC0xNTguNzA3ODMsLTQzLjUwOTgyIC0xNjIuNTcxOTQsLTM5LjEzNzkzIC0xNjguMzkzODMsLTM5LjEzNzkzIEMgLTE3Mi4zOTg1NiwtMzkuMTM3OTMgLTE3NS45ODI5NywtNDEuNjAyNzcgLTE3Ni42MzYxMSwtNDYuNDM4NzcgTCAtMTcxLjkzMjkyLC00Ni40Mzg3NyBDIC0xNzEuNzkyMywtNDMuOTI3NzggLTE3MC4xNjI2LC00My4wNDQxOCAtMTY3LjgzNDQ3LC00My4wNDQxOCBDIC0xNjUuMTgxMywtNDMuMDQ0MTggLTE2My40NTYzLC00NS41MDkwOCAtMTYzLjQ1NjMsLTQ5LjI3NzA5IEMgLTE2My40NTYzLC01My4yMjk0MiAtMTY0Ljk0NjkzLC01NS4zMjI0NCAtMTY3Ljc0MjI4LC01NS4zMjI0NCBDIC0xNjkuNzkwNzQsLTU1LjMyMjQ0IC0xNzEuNTU5NDgsLTU0LjU3Nzg3IC0xNzEuOTMyOTIsLTUyLjAyMDg3IEwgLTE3MC41NjQxOCwtNTIuMDI3ODkgTCAtMTc0LjI2NzM0LC00OC4zMjYyOSBMIC0xNzcuOTY4OTQsLTUyLjAyNzg5IEwgLTE3Ni40OTU0OCwtNTIuMDIwODcgeiIgLz4KICAgICAgICA8L2c+CiAgICAgIDwvZz4KICAgICAgPGcKICAgICAgICAgaWQ9ImczMTMiPgogICAgICAgIDxjaXJjbGUKICAgICAgICAgICBjeD0iMjQyLjU2MjI2IgogICAgICAgICAgIGN5PSI5MC4yMjQ2MDkiCiAgICAgICAgICAgcj0iMTAuODA2NCIKICAgICAgICAgICBpZD0iY2lyY2xlMzE1IgogICAgICAgICAgIHNvZGlwb2RpOmN4PSIyNDIuNTYyMjYiCiAgICAgICAgICAgc29kaXBvZGk6Y3k9IjkwLjIyNDYwOSIKICAgICAgICAgICBzb2RpcG9kaTpyeD0iMTAuODA2NCIKICAgICAgICAgICBzb2RpcG9kaTpyeT0iMTAuODA2NCIKICAgICAgICAgICBzdHlsZT0iZmlsbDojZmZmZmZmIiAvPgogICAgICAgIDxnCiAgICAgICAgICAgaWQ9ImczMTciPgogICAgICAgICAgPHBhdGgKICAgICAgICAgICAgIGQ9Ik0gMjQ1LjY4OTk0LDg3LjA5NzY2IEMgMjQ1LjY4OTk0LDg2LjY4MTE2IDI0NS4zNTIwNSw4Ni4zNDQyNCAyNDQuOTM2MDMsODYuMzQ0MjQgTCAyNDAuMTYzNTcsODYuMzQ0MjQgQyAyMzkuNzQ3NTUsODYuMzQ0MjQgMjM5LjQwOTY2LDg2LjY4MTE1IDIzOS40MDk2Niw4Ny4wOTc2NiBMIDIzOS40MDk2Niw5MS44NzA2MSBMIDI0MC43NDA3MSw5MS44NzA2MSBMIDI0MC43NDA3MSw5Ny41MjI5NSBMIDI0NC4zNTc5LDk3LjUyMjk1IEwgMjQ0LjM1NzksOTEuODcwNjEgTCAyNDUuNjg5OTMsOTEuODcwNjEgTCAyNDUuNjg5OTMsODcuMDk3NjYgTCAyNDUuNjg5OTQsODcuMDk3NjYgeiIKICAgICAgICAgICAgIGlkPSJwYXRoMzE5IiAvPgogICAgICAgICAgPGNpcmNsZQogICAgICAgICAgICAgY3g9IjI0Mi41NDk4IgogICAgICAgICAgICAgY3k9Ijg0LjA4MzAwOCIKICAgICAgICAgICAgIHI9IjEuNjMyMzIiCiAgICAgICAgICAgICBpZD0iY2lyY2xlMzIxIgogICAgICAgICAgICAgc29kaXBvZGk6Y3g9IjI0Mi41NDk4IgogICAgICAgICAgICAgc29kaXBvZGk6Y3k9Ijg0LjA4MzAwOCIKICAgICAgICAgICAgIHNvZGlwb2RpOnJ4PSIxLjYzMjMyIgogICAgICAgICAgICAgc29kaXBvZGk6cnk9IjEuNjMyMzIiIC8+CiAgICAgICAgPC9nPgogICAgICAgIDxwYXRoCiAgICAgICAgICAgY2xpcC1ydWxlPSJldmVub2RkIgogICAgICAgICAgIGQ9Ik0gMjQyLjUzNDY3LDc4LjMxODM2IEMgMjM5LjMwMzIyLDc4LjMxODM2IDIzNi41NjY0MSw3OS40NDU4IDIzNC4zMjcxNSw4MS43MDIxNSBDIDIzMi4wMjkzLDg0LjAzNTE2IDIzMC44ODA4Niw4Ni43OTczNiAyMzAuODgwODYsODkuOTg2MzMgQyAyMzAuODgwODYsOTMuMTc1MyAyMzIuMDI5Myw5NS45MTg0NiAyMzQuMzI3MTUsOTguMjEzMzggQyAyMzYuNjI1LDEwMC41MDc4MSAyMzkuMzYxMzMsMTAxLjY1NTI3IDI0Mi41MzQ2NywxMDEuNjU1MjcgQyAyNDUuNzQ3NTYsMTAxLjY1NTI3IDI0OC41MzI3MiwxMDAuNDk4NTMgMjUwLjg4ODE5LDk4LjE4MzU5IEMgMjUzLjEwODg5LDk1Ljk4NjgxIDI1NC4yMTgyNyw5My4yNTM5IDI1NC4yMTgyNyw4OS45ODYzMiBDIDI1NC4yMTgyNyw4Ni43MTg3NCAyNTMuMDg5MzYsODMuOTU3NTEgMjUwLjgzMDU3LDgxLjcwMjE0IEMgMjQ4LjU3MTc4LDc5LjQ0NTggMjQ1LjgwNjE1LDc4LjMxODM2IDI0Mi41MzQ2Nyw3OC4zMTgzNiB6IE0gMjQyLjU2Mzk2LDgwLjQxNzk3IEMgMjQ1LjIxMjQsODAuNDE3OTcgMjQ3LjQ2MTQyLDgxLjM1MTU2IDI0OS4zMTEwMyw4My4yMTg3NSBDIDI1MS4xODExNSw4NS4wNjU5MiAyNTIuMTE1NzIsODcuMzIyMjcgMjUyLjExNTcyLDg5Ljk4NjMzIEMgMjUyLjExNTcyLDkyLjY2OTkyIDI1MS4yMDA2OCw5NC44OTc0NiAyNDkuMzY5NjMsOTYuNjY2OTkgQyAyNDcuNDQxOSw5OC41NzI3NSAyNDUuMTczMzQsOTkuNTI1MzkgMjQyLjU2Mzk3LDk5LjUyNTM5IEMgMjM5Ljk1NDYsOTkuNTI1MzkgMjM3LjcwNTU3LDk4LjU4MjUyIDIzNS44MTczOSw5Ni42OTU4IEMgMjMzLjkyNzc0LDk0LjgwOTU3IDIzMi45ODM4OSw5Mi41NzMyNCAyMzIuOTgzODksODkuOTg2MzMgQyAyMzIuOTgzODksODcuMzk5OSAyMzMuOTM3OTksODUuMTQ0MDQgMjM1Ljg0NjE5LDgzLjIxODc1IEMgMjM3LjY3Njc2LDgxLjM1MTU2IDIzOS45MTY1LDgwLjQxNzk3IDI0Mi41NjM5Niw4MC40MTc5NyB6IgogICAgICAgICAgIGlkPSJwYXRoMzIzIgogICAgICAgICAgIHN0eWxlPSJmaWxsLXJ1bGU6ZXZlbm9kZCIgLz4KICAgICAgPC9nPgogICAgPC9nPgogIDwvZz4KPC9zdmc+Cg==;rotation=-90;" parent="K4RG6xlcgAWGA_TNZQZL-3" vertex="1">
                    <mxGeometry x="1440" y="290" width="120" height="42" as="geometry"/>
                </mxCell>
                <mxCell id="1" value="Vordergrund" parent="0"/>
                <mxCell id="lZGp6QckHX9QJBE5zHB9-35" value="" style="endArrow=classic;html=1;rounded=0;entryX=0.644;entryY=1.006;entryDx=0;entryDy=0;entryPerimeter=0;exitX=0.5;exitY=0;exitDx=0;exitDy=0;flowAnimation=0;shadow=0;sketch=1;curveFitting=1;jiggle=2;" parent="1" source="3mlGmP6VU70CLrb9exYD-23" target="3mlGmP6VU70CLrb9exYD-29" edge="1">
                    <mxGeometry width="50" height="50" relative="1" as="geometry">
                        <mxPoint x="1000" y="895" as="sourcePoint"/>
                        <mxPoint x="630" y="485" as="targetPoint"/>
                        <Array as="points">
                            <mxPoint x="830" y="660"/>
                        </Array>
                    </mxGeometry>
                </mxCell>
                <mxCell id="2WpTPWqb3Zn7tikdlb63-14" value="" style="rounded=1;whiteSpace=wrap;html=1;fillColor=none;strokeWidth=2;dashed=1;" parent="1" vertex="1">
                    <mxGeometry x="110" y="815" width="1330" height="170" as="geometry"/>
                </mxCell>
                <mxCell id="lZGp6QckHX9QJBE5zHB9-56" value="" style="rounded=1;whiteSpace=wrap;html=1;fillColor=#ECDFCB;fontColor=#333333;strokeColor=#666666;dashed=1;dashPattern=8 8;strokeWidth=2;" parent="1" vertex="1">
                    <mxGeometry x="940" y="533" width="410" height="210" as="geometry"/>
                </mxCell>
                <mxCell id="3mlGmP6VU70CLrb9exYD-1" value="Biber-Gruppe" style="rounded=0;whiteSpace=wrap;html=1;fillColor=#B3B3B3;fontColor=#333333;strokeColor=#817B71;" parent="1" vertex="1">
                    <mxGeometry x="140" y="895" width="120" height="60" as="geometry"/>
                </mxCell>
                <mxCell id="3mlGmP6VU70CLrb9exYD-2" value="Wö-Stufe" style="rounded=0;whiteSpace=wrap;html=1;fillColor=#ffe6cc;strokeColor=#FF6400;" parent="1" vertex="1">
                    <mxGeometry x="260" y="895" width="120" height="60" as="geometry"/>
                </mxCell>
                <mxCell id="3mlGmP6VU70CLrb9exYD-6" value="Biber-Eltern" style="rounded=0;whiteSpace=wrap;html=1;fillColor=#f5f5f5;fontColor=#333333;strokeColor=#817B71;" parent="1" vertex="1">
                    <mxGeometry x="210" y="690" width="80" height="40" as="geometry"/>
                </mxCell>
                <mxCell id="3mlGmP6VU70CLrb9exYD-7" value="Wö-Eltern" style="rounded=0;whiteSpace=wrap;html=1;fillColor=#ffe6cc;strokeColor=#FF6400;" parent="1" vertex="1">
                    <mxGeometry x="290" y="690" width="80" height="40" as="geometry"/>
                </mxCell>
                <mxCell id="3mlGmP6VU70CLrb9exYD-8" value="Juffi-Eltern" style="rounded=0;whiteSpace=wrap;html=1;fillColor=#dae8fc;strokeColor=#2F53A7;" parent="1" vertex="1">
                    <mxGeometry x="370" y="690" width="80" height="40" as="geometry"/>
                </mxCell>
                <mxCell id="3mlGmP6VU70CLrb9exYD-9" value="Pfadi-Eltern" style="rounded=0;whiteSpace=wrap;html=1;fillColor=#d5e8d4;strokeColor=#00823C;" parent="1" vertex="1">
                    <mxGeometry x="450" y="690" width="80" height="40" as="geometry"/>
                </mxCell>
                <mxCell id="3mlGmP6VU70CLrb9exYD-10" value="" style="verticalLabelPosition=bottom;shadow=0;dashed=0;align=center;html=1;verticalAlign=top;strokeWidth=2;shape=mxgraph.mockup.markup.curlyBrace;whiteSpace=wrap;strokeColor=#0F0F0F;sketch=1;curveFitting=1;jiggle=2;" parent="1" vertex="1">
                    <mxGeometry x="210" y="655" width="320" height="20" as="geometry"/>
                </mxCell>
                <mxCell id="3mlGmP6VU70CLrb9exYD-13" value="Elternversammlung" style="ellipse;whiteSpace=wrap;html=1;fillColor=#ECDFCB;strokeColor=#810A1A;strokeWidth=3;" parent="1" vertex="1">
                    <mxGeometry x="300" y="565" width="140" height="70" as="geometry"/>
                </mxCell>
                <mxCell id="3mlGmP6VU70CLrb9exYD-14" value="&lt;font style=&quot;font-size: 8px;&quot;&gt;- Stammesvorstand + Elternvertretung leiten&lt;br style=&quot;font-size: 8px;&quot;&gt;- Keine Voraussetzungen bzgl. Beschlussfähigkeit&lt;/font&gt;" style="shape=note;whiteSpace=wrap;html=1;backgroundOutline=1;darkOpacity=0.05;size=17;align=left;fontSize=8;fillColor=#ECDFCB;" parent="1" vertex="1">
                    <mxGeometry x="130" y="505" width="160" height="70" as="geometry"/>
                </mxCell>
                <mxCell id="3mlGmP6VU70CLrb9exYD-16" value="" style="endArrow=classic;html=1;rounded=0;sketch=1;curveFitting=1;jiggle=2;" parent="1" edge="1">
                    <mxGeometry width="50" height="50" relative="1" as="geometry">
                        <mxPoint x="369" y="555" as="sourcePoint"/>
                        <mxPoint x="369" y="465" as="targetPoint"/>
                    </mxGeometry>
                </mxCell>
                <mxCell id="3mlGmP6VU70CLrb9exYD-28" value="Wählt auf zwei Jahre" style="edgeLabel;html=1;align=center;verticalAlign=middle;resizable=0;points=[];labelBackgroundColor=#ECDFCB;" parent="3mlGmP6VU70CLrb9exYD-16" vertex="1" connectable="0">
                    <mxGeometry x="-0.1481" y="1" relative="1" as="geometry">
                        <mxPoint as="offset"/>
                    </mxGeometry>
                </mxCell>
                <mxCell id="3mlGmP6VU70CLrb9exYD-18" value="" style="shape=actor;whiteSpace=wrap;html=1;fillColor=none;strokeColor=#003056;strokeWidth=3;" parent="1" vertex="1">
                    <mxGeometry x="320" y="373" width="40" height="60" as="geometry"/>
                </mxCell>
                <mxCell id="3mlGmP6VU70CLrb9exYD-19" value="" style="shape=actor;whiteSpace=wrap;html=1;fillColor=none;strokeColor=#003056;strokeWidth=3;" parent="1" vertex="1">
                    <mxGeometry x="380" y="373" width="40" height="60" as="geometry"/>
                </mxCell>
                <mxCell id="3mlGmP6VU70CLrb9exYD-20" value="Elternvertretung" style="text;html=1;align=center;verticalAlign=middle;resizable=0;points=[];autosize=1;strokeColor=none;fillColor=none;" parent="1" vertex="1">
                    <mxGeometry x="315" y="433" width="110" height="30" as="geometry"/>
                </mxCell>
                <mxCell id="3mlGmP6VU70CLrb9exYD-21" value="Biber-Leitende" style="rounded=0;whiteSpace=wrap;html=1;fillColor=#f5f5f5;fontColor=#333333;strokeColor=#817B71;" parent="1" vertex="1">
                    <mxGeometry x="780" y="895" width="120" height="60" as="geometry"/>
                </mxCell>
                <mxCell id="3mlGmP6VU70CLrb9exYD-22" value="Wö-Leitende" style="rounded=0;whiteSpace=wrap;html=1;fillColor=#ffe6cc;strokeColor=#FF6400;" parent="1" vertex="1">
                    <mxGeometry x="900" y="895" width="120" height="60" as="geometry"/>
                </mxCell>
                <mxCell id="3mlGmP6VU70CLrb9exYD-23" value="Juffi-Leitende" style="rounded=0;whiteSpace=wrap;html=1;fillColor=#dae8fc;strokeColor=#2F53A7;" parent="1" vertex="1">
                    <mxGeometry x="1020" y="895" width="120" height="60" as="geometry"/>
                </mxCell>
                <mxCell id="3mlGmP6VU70CLrb9exYD-24" value="Pfadi-Leitende" style="rounded=0;whiteSpace=wrap;html=1;fillColor=#d5e8d4;strokeColor=#00823C;" parent="1" vertex="1">
                    <mxGeometry x="1140" y="895" width="120" height="60" as="geometry"/>
                </mxCell>
                <mxCell id="3mlGmP6VU70CLrb9exYD-25" value="Rover-Leitende" style="rounded=0;whiteSpace=wrap;html=1;fillColor=#f8cecc;strokeColor=#CC1F2F;" parent="1" vertex="1">
                    <mxGeometry x="1260" y="895" width="120" height="60" as="geometry"/>
                </mxCell>
                <mxCell id="3mlGmP6VU70CLrb9exYD-26" value="" style="endArrow=classic;html=1;rounded=0;sketch=1;curveFitting=1;jiggle=2;" parent="1" edge="1">
                    <mxGeometry width="50" height="50" relative="1" as="geometry">
                        <mxPoint x="430" y="425" as="sourcePoint"/>
                        <mxPoint x="590" y="425" as="targetPoint"/>
                    </mxGeometry>
                </mxCell>
                <mxCell id="3mlGmP6VU70CLrb9exYD-27" value="Stimmberechtigte Mitglieder" style="edgeLabel;html=1;align=center;verticalAlign=middle;resizable=0;points=[];labelBackgroundColor=#ECDFCB;" parent="3mlGmP6VU70CLrb9exYD-26" vertex="1" connectable="0">
                    <mxGeometry x="-0.1136" y="3" relative="1" as="geometry">
                        <mxPoint x="13" y="-7" as="offset"/>
                    </mxGeometry>
                </mxCell>
                <mxCell id="3mlGmP6VU70CLrb9exYD-29" value="&lt;font&gt;&lt;span&gt;Stammesversammlung&lt;br&gt;(max. 18 Mitglieder)&lt;/span&gt;&lt;/font&gt;" style="ellipse;whiteSpace=wrap;html=1;fillColor=#ECDFCB;strokeColor=#810A1A;strokeWidth=3;fontFamily=Helvetica;fontStyle=0;" parent="1" vertex="1">
                    <mxGeometry x="600" y="361" width="190" height="124" as="geometry"/>
                </mxCell>
                <mxCell id="3mlGmP6VU70CLrb9exYD-35" value="" style="endArrow=none;html=1;rounded=0;startArrow=classic;startFill=1;endFill=0;sketch=1;curveFitting=1;jiggle=2;" parent="1" edge="1">
                    <mxGeometry width="50" height="50" relative="1" as="geometry">
                        <mxPoint x="1000" y="395" as="sourcePoint"/>
                        <mxPoint x="810" y="395" as="targetPoint"/>
                    </mxGeometry>
                </mxCell>
                <mxCell id="3mlGmP6VU70CLrb9exYD-38" value="Wählt auf drei Jahre;&lt;br&gt;Abwahl möglich durch &lt;br&gt;Antrag mit 25% Mehrheit" style="edgeLabel;html=1;align=center;verticalAlign=middle;resizable=0;points=[];labelBackgroundColor=#ECDFCB;" parent="3mlGmP6VU70CLrb9exYD-35" vertex="1" connectable="0">
                    <mxGeometry x="-0.126" y="2" relative="1" as="geometry">
                        <mxPoint x="-17" y="-26" as="offset"/>
                    </mxGeometry>
                </mxCell>
                <mxCell id="3mlGmP6VU70CLrb9exYD-36" value="" style="group;sketch=1;curveFitting=1;jiggle=2;" parent="1" vertex="1" connectable="0">
                    <mxGeometry x="1020" y="375" width="145" height="100" as="geometry"/>
                </mxCell>
                <mxCell id="3mlGmP6VU70CLrb9exYD-30" value="" style="shape=actor;whiteSpace=wrap;html=1;fillColor=#ECDFCB;strokeColor=#810A1A;strokeWidth=2;" parent="3mlGmP6VU70CLrb9exYD-36" vertex="1">
                    <mxGeometry width="40" height="60" as="geometry"/>
                </mxCell>
                <mxCell id="3mlGmP6VU70CLrb9exYD-31" value="" style="shape=actor;whiteSpace=wrap;html=1;fillColor=#ECDFCB;strokeColor=#810A1A;strokeWidth=2;" parent="3mlGmP6VU70CLrb9exYD-36" vertex="1">
                    <mxGeometry x="50" width="40" height="60" as="geometry"/>
                </mxCell>
                <mxCell id="3mlGmP6VU70CLrb9exYD-32" value="" style="shape=actor;whiteSpace=wrap;html=1;fillColor=#ECDFCB;strokeColor=#810A1A;strokeWidth=2;" parent="3mlGmP6VU70CLrb9exYD-36" vertex="1">
                    <mxGeometry x="100" width="40" height="60" as="geometry"/>
                </mxCell>
                <mxCell id="3mlGmP6VU70CLrb9exYD-33" value="Stammesvorstand" style="text;html=1;align=center;verticalAlign=middle;resizable=0;points=[];autosize=1;strokeColor=none;fillColor=none;" parent="3mlGmP6VU70CLrb9exYD-36" vertex="1">
                    <mxGeometry x="10" y="70" width="120" height="30" as="geometry"/>
                </mxCell>
                <mxCell id="lZGp6QckHX9QJBE5zHB9-14" value="" style="ellipse;whiteSpace=wrap;html=1;fillColor=none;strokeColor=#810A1A;" parent="3mlGmP6VU70CLrb9exYD-36" vertex="1">
                    <mxGeometry x="106" y="-4" width="27.5" height="10" as="geometry"/>
                </mxCell>
                <mxCell id="3mlGmP6VU70CLrb9exYD-40" value="Stammesleitung" style="ellipse;whiteSpace=wrap;html=1;fillColor=#ECDFCB;strokeColor=#810a1a;strokeWidth=2;" parent="1" vertex="1">
                    <mxGeometry x="1040" y="545" width="170" height="80" as="geometry"/>
                </mxCell>
                <mxCell id="3mlGmP6VU70CLrb9exYD-48" value="" style="group" parent="1" vertex="1" connectable="0">
                    <mxGeometry x="1280" y="415" width="100" height="118" as="geometry"/>
                </mxCell>
                <mxCell id="3mlGmP6VU70CLrb9exYD-42" value="Referent*innen" style="text;html=1;align=center;verticalAlign=middle;resizable=0;points=[];autosize=1;strokeColor=none;fillColor=none;" parent="3mlGmP6VU70CLrb9exYD-48" vertex="1">
                    <mxGeometry y="88" width="100" height="30" as="geometry"/>
                </mxCell>
                <mxCell id="3mlGmP6VU70CLrb9exYD-46" value="" style="group;" parent="3mlGmP6VU70CLrb9exYD-48" vertex="1" connectable="0">
                    <mxGeometry x="10" width="81" height="90" as="geometry"/>
                </mxCell>
                <mxCell id="3mlGmP6VU70CLrb9exYD-43" value="" style="shape=actor;whiteSpace=wrap;html=1;fillColor=#ECDFCB;strokeColor=#810A1A;strokeWidth=2;" parent="3mlGmP6VU70CLrb9exYD-46" vertex="1">
                    <mxGeometry x="21" y="10" width="40" height="60" as="geometry"/>
                </mxCell>
                <mxCell id="3mlGmP6VU70CLrb9exYD-44" value="" style="shape=actor;whiteSpace=wrap;html=1;fillColor=#ECDFCB;strokeColor=#810A1A;strokeWidth=2;" parent="3mlGmP6VU70CLrb9exYD-46" vertex="1">
                    <mxGeometry x="10" y="20" width="40" height="60" as="geometry"/>
                </mxCell>
                <mxCell id="3mlGmP6VU70CLrb9exYD-45" value="" style="shape=actor;whiteSpace=wrap;html=1;fillColor=#ECDFCB;strokeColor=#810A1A;strokeWidth=2;" parent="3mlGmP6VU70CLrb9exYD-46" vertex="1">
                    <mxGeometry y="30" width="40" height="60" as="geometry"/>
                </mxCell>
                <mxCell id="3mlGmP6VU70CLrb9exYD-47" value="..." style="text;html=1;align=center;verticalAlign=middle;resizable=0;points=[];autosize=1;strokeColor=none;fillColor=none;" parent="3mlGmP6VU70CLrb9exYD-46" vertex="1">
                    <mxGeometry x="51" y="10" width="30" height="30" as="geometry"/>
                </mxCell>
                <mxCell id="3mlGmP6VU70CLrb9exYD-49" value="" style="endArrow=classic;html=1;rounded=0;sketch=1;curveFitting=1;jiggle=2;" parent="1" edge="1">
                    <mxGeometry width="50" height="50" relative="1" as="geometry">
                        <mxPoint x="1170" y="450" as="sourcePoint"/>
                        <mxPoint x="1280" y="470" as="targetPoint"/>
                    </mxGeometry>
                </mxCell>
                <mxCell id="3mlGmP6VU70CLrb9exYD-50" value="ernennt" style="edgeLabel;html=1;align=center;verticalAlign=middle;resizable=0;points=[];labelBackgroundColor=#ECDFCB;" parent="3mlGmP6VU70CLrb9exYD-49" vertex="1" connectable="0">
                    <mxGeometry x="-0.1837" relative="1" as="geometry">
                        <mxPoint x="15" y="2" as="offset"/>
                    </mxGeometry>
                </mxCell>
                <mxCell id="lZGp6QckHX9QJBE5zHB9-3" value="" style="endArrow=none;html=1;rounded=0;strokeWidth=2;" parent="1" edge="1">
                    <mxGeometry width="50" height="50" relative="1" as="geometry">
                        <mxPoint x="760" y="830" as="sourcePoint"/>
                        <mxPoint x="760" y="970" as="targetPoint"/>
                    </mxGeometry>
                </mxCell>
                <mxCell id="lZGp6QckHX9QJBE5zHB9-4" value="" style="endArrow=classic;html=1;rounded=0;exitX=0.5;exitY=0;exitDx=0;exitDy=0;entryX=0.129;entryY=0.88;entryDx=0;entryDy=0;entryPerimeter=0;sketch=1;curveFitting=1;jiggle=2;" parent="1" source="3mlGmP6VU70CLrb9exYD-21" target="3mlGmP6VU70CLrb9exYD-40" edge="1">
                    <mxGeometry width="50" height="50" relative="1" as="geometry">
                        <mxPoint x="580" y="695" as="sourcePoint"/>
                        <mxPoint x="630" y="645" as="targetPoint"/>
                        <Array as="points"/>
                    </mxGeometry>
                </mxCell>
                <mxCell id="lZGp6QckHX9QJBE5zHB9-5" value="" style="endArrow=classic;html=1;rounded=0;exitX=0.5;exitY=0;exitDx=0;exitDy=0;entryX=0.334;entryY=1.002;entryDx=0;entryDy=0;entryPerimeter=0;sketch=1;curveFitting=1;jiggle=2;" parent="1" source="3mlGmP6VU70CLrb9exYD-22" target="3mlGmP6VU70CLrb9exYD-40" edge="1">
                    <mxGeometry width="50" height="50" relative="1" as="geometry">
                        <mxPoint x="750" y="775" as="sourcePoint"/>
                        <mxPoint x="881" y="632" as="targetPoint"/>
                    </mxGeometry>
                </mxCell>
                <mxCell id="lZGp6QckHX9QJBE5zHB9-6" value="" style="endArrow=classic;html=1;rounded=0;exitX=0.5;exitY=0;exitDx=0;exitDy=0;entryX=0.579;entryY=1.023;entryDx=0;entryDy=0;entryPerimeter=0;sketch=1;curveFitting=1;jiggle=2;" parent="1" source="3mlGmP6VU70CLrb9exYD-23" target="3mlGmP6VU70CLrb9exYD-40" edge="1">
                    <mxGeometry width="50" height="50" relative="1" as="geometry">
                        <mxPoint x="870" y="775" as="sourcePoint"/>
                        <mxPoint x="887" y="635" as="targetPoint"/>
                    </mxGeometry>
                </mxCell>
                <mxCell id="lZGp6QckHX9QJBE5zHB9-7" value="" style="endArrow=classic;html=1;rounded=0;exitX=0.401;exitY=-0.036;exitDx=0;exitDy=0;entryX=0.784;entryY=0.938;entryDx=0;entryDy=0;entryPerimeter=0;exitPerimeter=0;sketch=1;curveFitting=1;jiggle=2;" parent="1" source="3mlGmP6VU70CLrb9exYD-24" target="3mlGmP6VU70CLrb9exYD-40" edge="1">
                    <mxGeometry width="50" height="50" relative="1" as="geometry">
                        <mxPoint x="990" y="775" as="sourcePoint"/>
                        <mxPoint x="928" y="637" as="targetPoint"/>
                    </mxGeometry>
                </mxCell>
                <mxCell id="lZGp6QckHX9QJBE5zHB9-8" value="" style="endArrow=classic;html=1;rounded=0;exitX=0.5;exitY=0;exitDx=0;exitDy=0;entryX=0.898;entryY=0.845;entryDx=0;entryDy=0;entryPerimeter=0;sketch=1;curveFitting=1;jiggle=2;" parent="1" source="3mlGmP6VU70CLrb9exYD-25" target="3mlGmP6VU70CLrb9exYD-40" edge="1">
                    <mxGeometry width="50" height="50" relative="1" as="geometry">
                        <mxPoint x="1098" y="773" as="sourcePoint"/>
                        <mxPoint x="963" y="630" as="targetPoint"/>
                        <Array as="points"/>
                    </mxGeometry>
                </mxCell>
                <mxCell id="lZGp6QckHX9QJBE5zHB9-11" style="rounded=0;orthogonalLoop=1;jettySize=auto;html=1;entryX=0.484;entryY=-0.021;entryDx=0;entryDy=0;exitX=0.719;exitY=1.044;exitDx=0;exitDy=0;exitPerimeter=0;entryPerimeter=0;sketch=1;curveFitting=1;jiggle=2;" parent="1" source="3mlGmP6VU70CLrb9exYD-33" target="3mlGmP6VU70CLrb9exYD-40" edge="1">
                    <mxGeometry relative="1" as="geometry"/>
                </mxCell>
                <mxCell id="lZGp6QckHX9QJBE5zHB9-13" value="&lt;font style=&quot;font-size: 10px;&quot;&gt;Stimmberechtigte Mitglieder&lt;/font&gt;" style="edgeLabel;html=1;align=center;verticalAlign=middle;resizable=0;points=[];labelBackgroundColor=#ECDFCB;" parent="lZGp6QckHX9QJBE5zHB9-11" vertex="1" connectable="0">
                    <mxGeometry x="-0.0963" relative="1" as="geometry">
                        <mxPoint as="offset"/>
                    </mxGeometry>
                </mxCell>
                <mxCell id="lZGp6QckHX9QJBE5zHB9-15" value="" style="verticalLabelPosition=bottom;shadow=0;dashed=0;align=center;html=1;verticalAlign=top;strokeWidth=2;shape=mxgraph.mockup.markup.curlyBrace;whiteSpace=wrap;strokeColor=#0F0F0F;sketch=1;curveFitting=1;jiggle=2;" parent="1" vertex="1">
                    <mxGeometry x="260" y="865" width="480" height="20" as="geometry"/>
                </mxCell>
                <mxCell id="lZGp6QckHX9QJBE5zHB9-22" value="Pfadi-Stufe" style="rounded=0;whiteSpace=wrap;html=1;fillColor=#d5e8d4;strokeColor=#00823C;" parent="1" vertex="1">
                    <mxGeometry x="500" y="895" width="120" height="60" as="geometry"/>
                </mxCell>
                <mxCell id="lZGp6QckHX9QJBE5zHB9-23" value="Rover-Stufe" style="rounded=0;whiteSpace=wrap;html=1;fillColor=#f8cecc;strokeColor=#CC1F2F;" parent="1" vertex="1">
                    <mxGeometry x="620" y="895" width="120" height="60" as="geometry"/>
                </mxCell>
                <mxCell id="lZGp6QckHX9QJBE5zHB9-24" value="Juffi-Stufe" style="rounded=0;whiteSpace=wrap;html=1;fillColor=#dae8fc;strokeColor=#2F53A7;" parent="1" vertex="1">
                    <mxGeometry x="380" y="895" width="120" height="60" as="geometry"/>
                </mxCell>
                <mxCell id="lZGp6QckHX9QJBE5zHB9-26" value="" style="shape=actor;whiteSpace=wrap;html=1;strokeColor=#817B71;fillColor=#ECDFCB;strokeWidth=2;" parent="1" vertex="1">
                    <mxGeometry x="1010" y="602.62" width="30" height="50" as="geometry"/>
                </mxCell>
                <mxCell id="lZGp6QckHX9QJBE5zHB9-27" value="" style="shape=actor;whiteSpace=wrap;html=1;strokeColor=#FF6400;fillColor=#ECDFCB;strokeWidth=2;" parent="1" vertex="1">
                    <mxGeometry x="1050" y="618" width="30" height="50" as="geometry"/>
                </mxCell>
                <mxCell id="lZGp6QckHX9QJBE5zHB9-28" value="" style="shape=actor;whiteSpace=wrap;html=1;strokeColor=#2F53A7;fillColor=#ECDFCB;strokeWidth=2;" parent="1" vertex="1">
                    <mxGeometry x="1110" y="618" width="30" height="50" as="geometry"/>
                </mxCell>
                <mxCell id="lZGp6QckHX9QJBE5zHB9-29" value="" style="shape=actor;whiteSpace=wrap;html=1;strokeColor=#00823C;fillColor=#ECDFCB;strokeWidth=2;" parent="1" vertex="1">
                    <mxGeometry x="1151" y="615" width="30" height="50" as="geometry"/>
                </mxCell>
                <mxCell id="lZGp6QckHX9QJBE5zHB9-30" value="" style="shape=actor;whiteSpace=wrap;html=1;strokeColor=#CC1F2F;fillColor=#ECDFCB;strokeWidth=2;" parent="1" vertex="1">
                    <mxGeometry x="1190" y="602.62" width="30" height="50" as="geometry"/>
                </mxCell>
                <mxCell id="lZGp6QckHX9QJBE5zHB9-33" value="" style="endArrow=classic;html=1;rounded=0;exitX=0.5;exitY=0;exitDx=0;exitDy=0;entryX=1;entryY=1;entryDx=0;entryDy=0;flowAnimation=0;shadow=0;sketch=1;curveFitting=1;jiggle=2;" parent="1" source="3mlGmP6VU70CLrb9exYD-25" target="3mlGmP6VU70CLrb9exYD-29" edge="1">
                    <mxGeometry width="50" height="50" relative="1" as="geometry">
                        <mxPoint x="1250" y="885" as="sourcePoint"/>
                        <mxPoint x="1203" y="623" as="targetPoint"/>
                        <Array as="points">
                            <mxPoint x="900" y="665"/>
                        </Array>
                    </mxGeometry>
                </mxCell>
                <mxCell id="lZGp6QckHX9QJBE5zHB9-34" value="" style="endArrow=classic;html=1;rounded=0;exitX=0.392;exitY=-0.05;exitDx=0;exitDy=0;entryX=0.716;entryY=0.96;entryDx=0;entryDy=0;exitPerimeter=0;entryPerimeter=0;flowAnimation=0;shadow=0;sketch=1;curveFitting=1;jiggle=2;" parent="1" source="3mlGmP6VU70CLrb9exYD-24" target="3mlGmP6VU70CLrb9exYD-29" edge="1">
                    <mxGeometry width="50" height="50" relative="1" as="geometry">
                        <mxPoint x="1250" y="885" as="sourcePoint"/>
                        <mxPoint x="772" y="477" as="targetPoint"/>
                        <Array as="points">
                            <mxPoint x="870" y="665"/>
                        </Array>
                    </mxGeometry>
                </mxCell>
                <mxCell id="lZGp6QckHX9QJBE5zHB9-36" value="" style="endArrow=classic;html=1;rounded=0;entryX=0.545;entryY=1.024;entryDx=0;entryDy=0;entryPerimeter=0;exitX=0.5;exitY=0;exitDx=0;exitDy=0;flowAnimation=0;shadow=0;sketch=1;curveFitting=1;jiggle=2;" parent="1" source="3mlGmP6VU70CLrb9exYD-22" target="3mlGmP6VU70CLrb9exYD-29" edge="1">
                    <mxGeometry width="50" height="50" relative="1" as="geometry">
                        <mxPoint x="900" y="875" as="sourcePoint"/>
                        <mxPoint x="590" y="486" as="targetPoint"/>
                        <Array as="points">
                            <mxPoint x="790" y="665"/>
                        </Array>
                    </mxGeometry>
                </mxCell>
                <mxCell id="lZGp6QckHX9QJBE5zHB9-37" value="" style="endArrow=classic;html=1;rounded=0;entryX=0.404;entryY=1.015;entryDx=0;entryDy=0;entryPerimeter=0;exitX=0.5;exitY=0;exitDx=0;exitDy=0;flowAnimation=0;shadow=0;sketch=1;curveFitting=1;jiggle=2;" parent="1" source="3mlGmP6VU70CLrb9exYD-21" target="3mlGmP6VU70CLrb9exYD-29" edge="1">
                    <mxGeometry width="50" height="50" relative="1" as="geometry">
                        <mxPoint x="760" y="895" as="sourcePoint"/>
                        <mxPoint x="570" y="485" as="targetPoint"/>
                        <Array as="points">
                            <mxPoint x="760" y="665"/>
                        </Array>
                    </mxGeometry>
                </mxCell>
                <mxCell id="lZGp6QckHX9QJBE5zHB9-38" value="Ernennen jeweils ein*e &lt;br&gt;stimmberechtigte*n Vertreter*in" style="text;html=1;align=center;verticalAlign=middle;resizable=0;points=[];autosize=1;fillColor=#ECDFCB;strokeColor=default;strokeWidth=1;rounded=1;" parent="1" vertex="1">
                    <mxGeometry x="710" y="595" width="190" height="40" as="geometry"/>
                </mxCell>
                <mxCell id="lZGp6QckHX9QJBE5zHB9-39" value="" style="shape=actor;whiteSpace=wrap;html=1;fillColor=#ECDFCB;strokeColor=#cc1f2f;strokeWidth=2;" parent="1" vertex="1">
                    <mxGeometry x="800" y="509.31" width="30" height="50" as="geometry"/>
                </mxCell>
                <mxCell id="lZGp6QckHX9QJBE5zHB9-40" value="" style="shape=actor;whiteSpace=wrap;html=1;fillColor=#ECDFCB;strokeColor=#00823c;strokeWidth=2;" parent="1" vertex="1">
                    <mxGeometry x="775" y="515" width="30" height="50" as="geometry"/>
                </mxCell>
                <mxCell id="lZGp6QckHX9QJBE5zHB9-46" value="" style="shape=actor;whiteSpace=wrap;html=1;fillColor=#ECDFCB;strokeColor=#2f53a7;strokeWidth=2;" parent="1" vertex="1">
                    <mxGeometry x="770" y="533" width="30" height="50" as="geometry"/>
                </mxCell>
                <mxCell id="lZGp6QckHX9QJBE5zHB9-47" value="" style="shape=actor;whiteSpace=wrap;html=1;fillColor=#ECDFCB;strokeColor=#ff6400;strokeWidth=2;" parent="1" vertex="1">
                    <mxGeometry x="730" y="525" width="30" height="50" as="geometry"/>
                </mxCell>
                <mxCell id="lZGp6QckHX9QJBE5zHB9-48" value="" style="shape=actor;whiteSpace=wrap;html=1;fillColor=#ECDFCB;strokeColor=#817b71;strokeWidth=2;" parent="1" vertex="1">
                    <mxGeometry x="707" y="533" width="30" height="50" as="geometry"/>
                </mxCell>
                <mxCell id="lZGp6QckHX9QJBE5zHB9-50" value="" style="endArrow=classic;html=1;rounded=0;entryX=0.158;entryY=0.866;entryDx=0;entryDy=0;exitX=0.5;exitY=0.039;exitDx=0;exitDy=0;exitPerimeter=0;entryPerimeter=0;sketch=1;curveFitting=1;jiggle=2;" parent="1" source="lZGp6QckHX9QJBE5zHB9-15" target="3mlGmP6VU70CLrb9exYD-29" edge="1">
                    <mxGeometry width="50" height="50" relative="1" as="geometry">
                        <mxPoint x="430" y="825" as="sourcePoint"/>
                        <mxPoint x="590" y="505" as="targetPoint"/>
                        <Array as="points">
                            <mxPoint x="500" y="775"/>
                            <mxPoint x="630" y="775"/>
                        </Array>
                    </mxGeometry>
                </mxCell>
                <mxCell id="2WpTPWqb3Zn7tikdlb63-15" value="Bestimmen jeweils zwei Delegierte" style="edgeLabel;html=1;align=center;verticalAlign=middle;resizable=0;points=[];labelBackgroundColor=#ECDFCB;" parent="lZGp6QckHX9QJBE5zHB9-50" vertex="1" connectable="0">
                    <mxGeometry x="-0.9011" y="-1" relative="1" as="geometry">
                        <mxPoint as="offset"/>
                    </mxGeometry>
                </mxCell>
                <mxCell id="lZGp6QckHX9QJBE5zHB9-57" value="- Beschlussfähigkeit ab 50% anwesender Stimmen&lt;br&gt;- Einladung ohne Terminbeschluss mind. 4 W. vorher, sonst 2 W.&lt;br&gt;- Antragsrecht: Alle Mitglieder des Stammes" style="shape=note;whiteSpace=wrap;html=1;backgroundOutline=1;darkOpacity=0.05;size=17;align=left;fontSize=8;labelBackgroundColor=none;fontColor=default;fillColor=#ECDFCB;" parent="1" vertex="1">
                    <mxGeometry x="460" y="465" width="140" height="90" as="geometry"/>
                </mxCell>
                <mxCell id="lZGp6QckHX9QJBE5zHB9-58" value="" style="labelPosition=right;align=left;strokeWidth=2;shape=mxgraph.mockup.markup.curlyBrace;html=1;shadow=0;dashed=0;strokeColor=#000000;direction=north;flipH=1;sketch=1;curveFitting=1;jiggle=2;" parent="1" vertex="1">
                    <mxGeometry x="1360" y="535" width="30" height="210" as="geometry"/>
                </mxCell>
                <mxCell id="lZGp6QckHX9QJBE5zHB9-59" value="&lt;font style=&quot;font-size: 13px;&quot;&gt;Alternativ:&lt;br&gt;Stammesleiterrunde&lt;br&gt;&lt;/font&gt;" style="text;html=1;align=center;verticalAlign=middle;resizable=0;points=[];autosize=1;strokeColor=none;fillColor=none;" parent="1" vertex="1">
                    <mxGeometry x="1390" y="620" width="140" height="40" as="geometry"/>
                </mxCell>
                <mxCell id="lZGp6QckHX9QJBE5zHB9-62" value="Rover-Eltern" style="rounded=0;whiteSpace=wrap;html=1;fillColor=#B3B3B3;strokeColor=#666666;gradientDirection=north;fontColor=#333333;" parent="1" vertex="1">
                    <mxGeometry x="530" y="690" width="80" height="40" as="geometry"/>
                </mxCell>
                <mxCell id="2WpTPWqb3Zn7tikdlb63-16" style="edgeStyle=orthogonalEdgeStyle;rounded=0;orthogonalLoop=1;jettySize=auto;html=1;entryX=0.299;entryY=0.996;entryDx=0;entryDy=0;entryPerimeter=0;exitX=0.446;exitY=0.008;exitDx=0;exitDy=0;exitPerimeter=0;sketch=1;curveFitting=1;jiggle=2;" parent="1" source="2WpTPWqb3Zn7tikdlb63-14" target="3mlGmP6VU70CLrb9exYD-29" edge="1">
                    <mxGeometry relative="1" as="geometry"/>
                </mxCell>
                <mxCell id="2WpTPWqb3Zn7tikdlb63-17" value="&lt;font style=&quot;font-size: 7px;&quot;&gt;&lt;font style=&quot;font-size: 7px;&quot;&gt;Alle Mitglieder:&lt;/font&gt;&lt;br&gt;&lt;/font&gt;Antragsrecht" style="edgeLabel;html=1;align=center;verticalAlign=middle;resizable=0;points=[];labelBackgroundColor=#ECDFCB;" parent="2WpTPWqb3Zn7tikdlb63-16" vertex="1" connectable="0">
                    <mxGeometry x="-0.7279" relative="1" as="geometry">
                        <mxPoint x="-4" y="9" as="offset"/>
                    </mxGeometry>
                </mxCell>
                <mxCell id="2WpTPWqb3Zn7tikdlb63-24" value="" style="group;fillColor=none;" parent="1" vertex="1" connectable="0">
                    <mxGeometry x="644" y="515" width="24" height="38.620000000000005" as="geometry"/>
                </mxCell>
                <mxCell id="2WpTPWqb3Zn7tikdlb63-18" value="" style="shape=note;whiteSpace=wrap;html=1;backgroundOutline=1;darkOpacity=0.05;size=6;fillColor=#ECDFCB;" parent="2WpTPWqb3Zn7tikdlb63-24" vertex="1">
                    <mxGeometry x="4" width="20" height="33.81" as="geometry"/>
                </mxCell>
                <mxCell id="2WpTPWqb3Zn7tikdlb63-22" value="" style="shape=note;whiteSpace=wrap;html=1;backgroundOutline=1;darkOpacity=0.05;size=6;fillColor=#ECDFCB;" parent="2WpTPWqb3Zn7tikdlb63-24" vertex="1">
                    <mxGeometry x="2" y="2.8100000000000023" width="20" height="33.81" as="geometry"/>
                </mxCell>
                <mxCell id="2WpTPWqb3Zn7tikdlb63-23" value="&lt;font style=&quot;font-size: 6px;&quot;&gt;Antrag&lt;/font&gt;" style="shape=note;whiteSpace=wrap;html=1;backgroundOutline=1;darkOpacity=0.05;size=6;fillColor=#ECDFCB;" parent="2WpTPWqb3Zn7tikdlb63-24" vertex="1">
                    <mxGeometry y="4.810000000000002" width="20" height="33.81" as="geometry"/>
                </mxCell>
                <mxCell id="fGZ_j76KutCMB2uwTcF1-1" value="Alle nicht-stimmberechtigten sind&lt;br&gt;beratende Mitglieder" style="text;html=1;align=center;verticalAlign=middle;resizable=0;points=[];autosize=1;fillColor=#ECDFCB;strokeColor=default;rounded=1;glass=0;" parent="1" vertex="1">
                    <mxGeometry x="720" y="645" width="200" height="40" as="geometry"/>
                </mxCell>
                <mxCell id="fGZ_j76KutCMB2uwTcF1-3" value="" style="endArrow=classic;html=1;rounded=0;entryX=0.783;entryY=0.094;entryDx=0;entryDy=0;entryPerimeter=0;sketch=1;curveFitting=1;jiggle=2;" parent="1" target="3mlGmP6VU70CLrb9exYD-29" edge="1">
                    <mxGeometry width="50" height="50" relative="1" as="geometry">
                        <mxPoint x="1330" y="415" as="sourcePoint"/>
                        <mxPoint x="770" y="345" as="targetPoint"/>
                        <Array as="points">
                            <mxPoint x="1330" y="335"/>
                            <mxPoint x="770" y="335"/>
                        </Array>
                    </mxGeometry>
                </mxCell>
                <mxCell id="fGZ_j76KutCMB2uwTcF1-4" value="Beratende Mitglieder" style="edgeLabel;html=1;align=center;verticalAlign=middle;resizable=0;points=[];labelBackgroundColor=#ECDFCB;" parent="fGZ_j76KutCMB2uwTcF1-3" vertex="1" connectable="0">
                    <mxGeometry x="0.0401" y="-1" relative="1" as="geometry">
                        <mxPoint x="185" as="offset"/>
                    </mxGeometry>
                </mxCell>
                <mxCell id="fGZ_j76KutCMB2uwTcF1-27" style="edgeStyle=orthogonalEdgeStyle;rounded=0;orthogonalLoop=1;jettySize=auto;html=1;entryX=0.5;entryY=0;entryDx=0;entryDy=0;sketch=1;curveFitting=1;jiggle=2;" parent="1" target="3mlGmP6VU70CLrb9exYD-29" edge="1">
                    <mxGeometry relative="1" as="geometry">
                        <mxPoint x="695" y="275" as="sourcePoint"/>
                    </mxGeometry>
                </mxCell>
                <mxCell id="fGZ_j76KutCMB2uwTcF1-29" value="max. zwei&lt;br&gt;beratende Mitlglieder" style="edgeLabel;html=1;align=center;verticalAlign=middle;resizable=0;points=[];labelBackgroundColor=#ECDFCB;" parent="fGZ_j76KutCMB2uwTcF1-27" vertex="1" connectable="0">
                    <mxGeometry x="-0.0512" y="-2" relative="1" as="geometry">
                        <mxPoint as="offset"/>
                    </mxGeometry>
                </mxCell>
                <mxCell id="fGZ_j76KutCMB2uwTcF1-32" style="rounded=1;orthogonalLoop=1;jettySize=auto;html=1;entryX=0.926;entryY=0.233;entryDx=0;entryDy=0;entryPerimeter=0;exitX=-0.026;exitY=0.506;exitDx=0;exitDy=0;exitPerimeter=0;sketch=1;curveFitting=1;jiggle=2;" parent="1" source="3mlGmP6VU70CLrb9exYD-42" target="3mlGmP6VU70CLrb9exYD-40" edge="1">
                    <mxGeometry relative="1" as="geometry"/>
                </mxCell>
                <mxCell id="fGZ_j76KutCMB2uwTcF1-33" value="&lt;font style=&quot;font-size: 8px;&quot;&gt;Beratende Mitglieder&lt;/font&gt;" style="edgeLabel;html=1;align=center;verticalAlign=middle;resizable=0;points=[];labelBackgroundColor=#ECDFCB;" parent="fGZ_j76KutCMB2uwTcF1-32" vertex="1" connectable="0">
                    <mxGeometry x="0.0939" y="1" relative="1" as="geometry">
                        <mxPoint as="offset"/>
                    </mxGeometry>
                </mxCell>
                <mxCell id="fGZ_j76KutCMB2uwTcF1-49" value="" style="curved=1;endArrow=none;html=1;rounded=0;exitX=0.011;exitY=0.604;exitDx=0;exitDy=0;exitPerimeter=0;entryX=0.5;entryY=0;entryDx=0;entryDy=0;entryPerimeter=0;dashed=1;dashPattern=1 2;endFill=0;strokeWidth=2;" parent="1" source="3mlGmP6VU70CLrb9exYD-29" target="lZGp6QckHX9QJBE5zHB9-57" edge="1">
                    <mxGeometry width="50" height="50" relative="1" as="geometry">
                        <mxPoint x="610" y="475" as="sourcePoint"/>
                        <mxPoint x="660" y="425" as="targetPoint"/>
                        <Array as="points">
                            <mxPoint x="530" y="435"/>
                        </Array>
                    </mxGeometry>
                </mxCell>
                <mxCell id="fGZ_j76KutCMB2uwTcF1-50" value="" style="curved=1;endArrow=none;html=1;rounded=0;exitX=0;exitY=0.5;exitDx=0;exitDy=0;entryX=0.5;entryY=1;entryDx=0;entryDy=0;entryPerimeter=0;endFill=0;dashed=1;dashPattern=1 2;strokeWidth=2;" parent="1" source="3mlGmP6VU70CLrb9exYD-13" target="3mlGmP6VU70CLrb9exYD-14" edge="1">
                    <mxGeometry width="50" height="50" relative="1" as="geometry">
                        <mxPoint x="250" y="625" as="sourcePoint"/>
                        <mxPoint x="300" y="575" as="targetPoint"/>
                        <Array as="points">
                            <mxPoint x="220" y="615"/>
                        </Array>
                    </mxGeometry>
                </mxCell>
                <mxCell id="fGZ_j76KutCMB2uwTcF1-53" value="" style="endArrow=classic;dashed=1;html=1;strokeWidth=1;rounded=0;endFill=1;" parent="1" edge="1">
                    <mxGeometry width="50" height="50" relative="1" as="geometry">
                        <mxPoint x="1092" y="315" as="sourcePoint"/>
                        <mxPoint x="1092" y="235" as="targetPoint"/>
                    </mxGeometry>
                </mxCell>
                <mxCell id="fGZ_j76KutCMB2uwTcF1-55" value="Stimmberechtigte Mitglieder &lt;br&gt;der Bezirksversammlung" style="edgeLabel;html=1;align=center;verticalAlign=middle;resizable=0;points=[];labelBackgroundColor=#ECDFCB;" parent="fGZ_j76KutCMB2uwTcF1-53" vertex="1" connectable="0">
                    <mxGeometry x="0.02" relative="1" as="geometry">
                        <mxPoint as="offset"/>
                    </mxGeometry>
                </mxCell>
                <mxCell id="fGZ_j76KutCMB2uwTcF1-59" value="" style="endArrow=classic;html=1;rounded=0;sketch=1;curveFitting=1;jiggle=2;" parent="1" edge="1">
                    <mxGeometry width="50" height="50" relative="1" as="geometry">
                        <mxPoint x="1000" y="405" as="sourcePoint"/>
                        <mxPoint x="810" y="405" as="targetPoint"/>
                    </mxGeometry>
                </mxCell>
                <mxCell id="fGZ_j76KutCMB2uwTcF1-60" value="Stimmberechtigte Mitglieder" style="edgeLabel;html=1;align=center;verticalAlign=middle;resizable=0;points=[];labelBackgroundColor=#ECDFCB;" parent="fGZ_j76KutCMB2uwTcF1-59" vertex="1" connectable="0">
                    <mxGeometry x="-0.0211" relative="1" as="geometry">
                        <mxPoint y="10" as="offset"/>
                    </mxGeometry>
                </mxCell>
                <mxCell id="fGZ_j76KutCMB2uwTcF1-99" value="" style="group;fillColor=none;" parent="1" vertex="1" connectable="0">
                    <mxGeometry x="515.2" y="742.5" width="100.85" height="52.5" as="geometry"/>
                </mxCell>
                <mxCell id="fGZ_j76KutCMB2uwTcF1-95" value="" style="shape=actor;whiteSpace=wrap;html=1;fillColor=#ECDFCB;strokeColor=#CC1F2F;strokeWidth=2;" parent="fGZ_j76KutCMB2uwTcF1-99" vertex="1">
                    <mxGeometry x="73.21986301369863" width="27.63013698630137" height="41.44736842105264" as="geometry"/>
                </mxCell>
                <mxCell id="fGZ_j76KutCMB2uwTcF1-96" value="" style="shape=actor;whiteSpace=wrap;html=1;fillColor=#ECDFCB;strokeColor=#00823C;strokeWidth=2;" parent="fGZ_j76KutCMB2uwTcF1-99" vertex="1">
                    <mxGeometry x="53.87876712328767" width="27.63013698630137" height="41.44736842105264" as="geometry"/>
                </mxCell>
                <mxCell id="fGZ_j76KutCMB2uwTcF1-97" value="" style="shape=actor;whiteSpace=wrap;html=1;fillColor=#ECDFCB;strokeColor=#2F53A7;strokeWidth=2;" parent="fGZ_j76KutCMB2uwTcF1-99" vertex="1">
                    <mxGeometry x="35.91917808219178" width="27.63013698630137" height="41.44736842105264" as="geometry"/>
                </mxCell>
                <mxCell id="fGZ_j76KutCMB2uwTcF1-98" value="" style="shape=actor;whiteSpace=wrap;html=1;fillColor=#ECDFCB;strokeColor=#FF6400;strokeWidth=2;" parent="fGZ_j76KutCMB2uwTcF1-99" vertex="1">
                    <mxGeometry x="16.578082191780823" width="27.63013698630137" height="41.44736842105264" as="geometry"/>
                </mxCell>
                <mxCell id="fGZ_j76KutCMB2uwTcF1-88" value="" style="shape=actor;whiteSpace=wrap;html=1;fillColor=#ECDFCB;strokeColor=#CC1F2F;strokeWidth=2;" parent="fGZ_j76KutCMB2uwTcF1-99" vertex="1">
                    <mxGeometry x="56.641780821917806" y="11.052631578947368" width="27.63013698630137" height="41.44736842105264" as="geometry"/>
                </mxCell>
                <mxCell id="fGZ_j76KutCMB2uwTcF1-93" value="" style="shape=actor;whiteSpace=wrap;html=1;fillColor=#ECDFCB;strokeColor=#00823C;strokeWidth=2;" parent="fGZ_j76KutCMB2uwTcF1-99" vertex="1">
                    <mxGeometry x="37.30068493150685" y="11.052631578947368" width="27.63013698630137" height="41.44736842105264" as="geometry"/>
                </mxCell>
                <mxCell id="fGZ_j76KutCMB2uwTcF1-90" value="" style="shape=actor;whiteSpace=wrap;html=1;fillColor=#ECDFCB;strokeColor=#2F53A7;strokeWidth=2;" parent="fGZ_j76KutCMB2uwTcF1-99" vertex="1">
                    <mxGeometry x="19.34109589041096" y="11.052631578947368" width="27.63013698630137" height="41.44736842105264" as="geometry"/>
                </mxCell>
                <mxCell id="fGZ_j76KutCMB2uwTcF1-89" value="" style="shape=actor;whiteSpace=wrap;html=1;fillColor=#ECDFCB;strokeColor=#FF6400;strokeWidth=2;" parent="fGZ_j76KutCMB2uwTcF1-99" vertex="1">
                    <mxGeometry y="11.052631578947368" width="27.63013698630137" height="41.44736842105264" as="geometry"/>
                </mxCell>
                <mxCell id="fGZ_j76KutCMB2uwTcF1-104" value="" style="group" parent="1" vertex="1" connectable="0">
                    <mxGeometry x="640" y="185" width="110" height="90" as="geometry"/>
                </mxCell>
                <mxCell id="fGZ_j76KutCMB2uwTcF1-25" value="Bezirksleitung" style="text;html=1;align=center;verticalAlign=middle;resizable=0;points=[];autosize=1;strokeColor=none;fillColor=none;container=0;" parent="fGZ_j76KutCMB2uwTcF1-104" vertex="1">
                    <mxGeometry x="10" width="100" height="30" as="geometry"/>
                </mxCell>
                <mxCell id="fGZ_j76KutCMB2uwTcF1-21" value="" style="shape=actor;whiteSpace=wrap;html=1;strokeColor=#817B71;fillColor=#ECDFCB;" parent="fGZ_j76KutCMB2uwTcF1-104" vertex="1">
                    <mxGeometry x="20" y="32.5" width="25" height="37.5" as="geometry"/>
                </mxCell>
                <mxCell id="fGZ_j76KutCMB2uwTcF1-22" value="" style="shape=actor;whiteSpace=wrap;html=1;strokeColor=#817B71;fillColor=#ECDFCB;" parent="fGZ_j76KutCMB2uwTcF1-104" vertex="1">
                    <mxGeometry x="51.25" y="32.5" width="25" height="37.5" as="geometry"/>
                </mxCell>
                <mxCell id="fGZ_j76KutCMB2uwTcF1-23" value="" style="shape=actor;whiteSpace=wrap;html=1;strokeColor=#817B71;fillColor=#ECDFCB;" parent="fGZ_j76KutCMB2uwTcF1-104" vertex="1">
                    <mxGeometry x="82.5" y="32.5" width="25" height="37.5" as="geometry"/>
                </mxCell>
                <mxCell id="fGZ_j76KutCMB2uwTcF1-15" value="" style="group;fillColor=none;" parent="fGZ_j76KutCMB2uwTcF1-104" vertex="1" connectable="0">
                    <mxGeometry x="10" y="40" width="97.5" height="40" as="geometry"/>
                </mxCell>
                <mxCell id="fGZ_j76KutCMB2uwTcF1-16" value="" style="shape=actor;whiteSpace=wrap;html=1;strokeColor=#817B71;fillColor=#ECDFCB;" parent="fGZ_j76KutCMB2uwTcF1-15" vertex="1">
                    <mxGeometry y="2.5" width="25" height="37.5" as="geometry"/>
                </mxCell>
                <mxCell id="fGZ_j76KutCMB2uwTcF1-17" value="" style="shape=actor;whiteSpace=wrap;html=1;strokeColor=#21201D;fillColor=#ECDFCB;" parent="fGZ_j76KutCMB2uwTcF1-15" vertex="1">
                    <mxGeometry x="31.25" y="2.5" width="25" height="37.5" as="geometry"/>
                </mxCell>
                <mxCell id="fGZ_j76KutCMB2uwTcF1-18" value="" style="shape=actor;whiteSpace=wrap;html=1;strokeColor=#817B71;fillColor=#ECDFCB;" parent="fGZ_j76KutCMB2uwTcF1-15" vertex="1">
                    <mxGeometry x="62.5" y="2.5" width="25" height="37.5" as="geometry"/>
                </mxCell>
                <mxCell id="fGZ_j76KutCMB2uwTcF1-5" value="" style="shape=actor;whiteSpace=wrap;html=1;fillColor=#ECDFCB;strokeColor=#21201D;" parent="fGZ_j76KutCMB2uwTcF1-104" vertex="1">
                    <mxGeometry y="52.5" width="25" height="37.5" as="geometry"/>
                </mxCell>
                <mxCell id="fGZ_j76KutCMB2uwTcF1-6" value="" style="shape=actor;whiteSpace=wrap;html=1;strokeColor=#817B71;fillColor=#ECDFCB;" parent="fGZ_j76KutCMB2uwTcF1-104" vertex="1">
                    <mxGeometry x="31.25" y="52.5" width="25" height="37.5" as="geometry"/>
                </mxCell>
                <mxCell id="fGZ_j76KutCMB2uwTcF1-7" value="" style="shape=actor;whiteSpace=wrap;html=1;strokeColor=#817B71;fillColor=#ECDFCB;" parent="fGZ_j76KutCMB2uwTcF1-104" vertex="1">
                    <mxGeometry x="62.5" y="52.5" width="25" height="37.5" as="geometry"/>
                </mxCell>
                <mxCell id="fGZ_j76KutCMB2uwTcF1-8" value="" style="ellipse;whiteSpace=wrap;html=1;fillColor=none;strokeColor=#817B71;" parent="fGZ_j76KutCMB2uwTcF1-104" vertex="1">
                    <mxGeometry x="66.25" y="50" width="17.1875" height="6.25" as="geometry"/>
                </mxCell>
                <mxCell id="ioJB3xydzj5LYWLU4DL5-1" value="" style="verticalLabelPosition=bottom;shadow=0;dashed=0;align=center;html=1;verticalAlign=top;strokeWidth=1;shape=mxgraph.mockup.markup.curlyBrace;whiteSpace=wrap;strokeColor=#000000;sketch=1;curveFitting=1;jiggle=2;" parent="1" vertex="1">
                    <mxGeometry x="1020" y="355" width="145" height="20" as="geometry"/>
                </mxCell>
                <mxCell id="fGZ_j76KutCMB2uwTcF1-52" value="" style="endArrow=none;html=1;rounded=0;jumpStyle=arc;jumpSize=14;endFill=0;sketch=1;curveFitting=1;jiggle=2;" parent="1" source="ioJB3xydzj5LYWLU4DL5-1" edge="1">
                    <mxGeometry width="50" height="50" relative="1" as="geometry">
                        <mxPoint x="1092.26" y="341" as="sourcePoint"/>
                        <mxPoint x="1092" y="315" as="targetPoint"/>
                    </mxGeometry>
                </mxCell>
                <mxCell id="3g7R15x_aFce1sQqdEU9-1" value="" style="group;" parent="1" vertex="1" connectable="0">
                    <mxGeometry x="644" y="565.69" width="24" height="38.620000000000005" as="geometry"/>
                </mxCell>
                <mxCell id="3g7R15x_aFce1sQqdEU9-2" value="" style="shape=note;whiteSpace=wrap;html=1;backgroundOutline=1;darkOpacity=0.05;size=6;fillColor=#ECDFCB;" parent="3g7R15x_aFce1sQqdEU9-1" vertex="1">
                    <mxGeometry x="4" width="20" height="33.81" as="geometry"/>
                </mxCell>
                <mxCell id="3g7R15x_aFce1sQqdEU9-3" value="" style="shape=note;whiteSpace=wrap;html=1;backgroundOutline=1;darkOpacity=0.05;size=6;fillColor=#ECDFCB;" parent="3g7R15x_aFce1sQqdEU9-1" vertex="1">
                    <mxGeometry x="2" y="2.8100000000000023" width="20" height="33.81" as="geometry"/>
                </mxCell>
                <mxCell id="3g7R15x_aFce1sQqdEU9-4" value="&lt;font style=&quot;font-size: 5px;&quot;&gt;Initiativ-&lt;/font&gt;&lt;div style=&quot;font-size: 5px;&quot;&gt;&lt;font style=&quot;font-size: 5px;&quot;&gt;Antrag&lt;/font&gt;&lt;/div&gt;&lt;div style=&quot;font-size: 5px;&quot;&gt;&lt;font style=&quot;font-size: 5px;&quot;&gt;(IA)&lt;/font&gt;&lt;/div&gt;" style="shape=note;whiteSpace=wrap;html=1;backgroundOutline=1;darkOpacity=0.05;size=6;fontSize=5;fillColor=#ECDFCB;" parent="3g7R15x_aFce1sQqdEU9-1" vertex="1">
                    <mxGeometry y="4.810000000000002" width="20" height="33.81" as="geometry"/>
                </mxCell>
                <mxCell id="rPlY0k02uFkkS4nFaIxC-1" value="&lt;font style=&quot;font-size: 7px;&quot;&gt;IA: Erst ab 1/3-&lt;/font&gt;&lt;div&gt;&lt;font style=&quot;font-size: 7px;&quot;&gt;Mehrheit&amp;nbsp;&lt;/font&gt;auf der TO&lt;/div&gt;" style="edgeLabel;html=1;align=center;verticalAlign=middle;resizable=0;points=[];fontSize=7;labelBackgroundColor=#ECDFCB;labelBorderColor=none;" parent="1" vertex="1" connectable="0">
                    <mxGeometry x="669.8065683195107" y="625.4346274645532" as="geometry"/>
                </mxCell>
                <mxCell id="U-5bcoJ90JVE246uzdrd-2" value="&lt;font face=&quot;Arvo&quot;&gt;Der DPSG-Stamm&lt;/font&gt;" style="text;html=1;align=center;verticalAlign=middle;resizable=0;points=[];autosize=1;strokeColor=none;fillColor=none;fontSize=37;fontStyle=1;fontColor=default;" parent="1" vertex="1">
                    <mxGeometry x="160" y="210" width="340" height="60" as="geometry"/>
                </mxCell>
                <UserObject label="&lt;div style=&quot;font-size: 8px;&quot; class=&quot;tabs-panel is-active&quot;&gt;&lt;p class=&quot;license-text richtext&quot; style=&quot;margin-top: 0px; margin-bottom: 0px; font-size: 8px;&quot;&gt;&lt;a href=&quot;https://github.com/dpsg-beckum/organigramm&quot;&gt;Stammesorganigramm&lt;/a&gt; © 2024   by &lt;a href=&quot;https://www.dpsg-beckum.de&quot;&gt;Simon Wessel&amp;nbsp;/&amp;nbsp;DPSG Beckum&lt;/a&gt;&amp;nbsp;&lt;span style=&quot;background-color: initial;&quot;&gt;is licensed under CC BY-SA 4.0. To view a copy of this license, visit &lt;/span&gt;&lt;a href=&quot;https://creativecommons.org/licenses/by-sa/4.0/&quot; style=&quot;background-color: initial;&quot;&gt;https://creativecommons.org/licenses/by-sa/4.0/&lt;/a&gt;&lt;/p&gt;&lt;/div&gt;" id="OhsvZMaA8NcVtchBAmea-2">
                    <mxCell style="text;whiteSpace=wrap;html=1;fontSize=8;align=right;" parent="1" vertex="1">
                        <mxGeometry x="770" y="1010" width="759" height="20.91" as="geometry"/>
                    </mxCell>
                </UserObject>
                <mxCell id="lZGp6QckHX9QJBE5zHB9-9" value="Ernennen jeweils eine*n Sprecher*in als stimmberechtigtes Mitglied,&lt;br&gt;der Rest ist beratendes Mitglied" style="text;html=1;align=center;verticalAlign=middle;resizable=0;points=[];autosize=1;fillColor=#ECDFCB;fontColor=#333333;strokeColor=#666666;rounded=1;" parent="1" vertex="1">
                    <mxGeometry x="970" y="675" width="390" height="40" as="geometry"/>
                </mxCell>
            </root>
        </mxGraphModel>
    </diagram>
</mxfile>